<svg width="124px" height="70px" viewBox="0 0 140 79" xmlns="http://www.w3.org/2000/svg" xmlns:xlink="http://www.w3.org/1999/xlink"><defs><polygon id="path-1" points="0.330709602 0.37304999 40.0775839 0.37304999 40.0775839 40.0311889 0.330709602 40.0311889"></polygon> <polygon id="path-3" points="0 0.316652262 14.0370794 0.316652262 14.0370794 18.8996845 0 18.8996845"></polygon> <polygon id="path-5" points="0.439012182 0.240095345 16.8166796 0.240095345 16.8166796 18.8999995 0.439012182 18.8999995"></polygon></defs> <g stroke="none" stroke-width="1" fill="none" fill-rule="evenodd"><g transform="translate(-173.000000, -7781.000000)"><g transform="translate(173.000000, 7781.000000)"><g transform="translate(49.949999, 0.076950)"><mask id="mask-2" fill="white"><use xlink:href="#path-1"></use></mask> <g id="Clip-2"></g> <path d="M20.1509095,21.3822894 C20.4195595,21.3336894 20.7656094,21.3746394 20.8970094,21.2252394 C21.1598094,20.9282394 21.4509594,20.5290895 21.4563594,20.1677395 C21.4613094,19.8275395 21.1481094,19.4540395 20.9042094,19.1534395 C20.8079094,19.0355395 20.5176595,19.0436395 20.3178595,19.0494895 C20.0339095,19.0571395 19.6541095,19.0157395 19.4898595,19.1750395 C19.2207595,19.4360395 18.9453595,19.8414895 18.9444574,20.1866395 C18.9435595,20.5308895 19.2333595,20.9138394 19.4822095,21.2058894 C19.6055095,21.3507894 19.9236595,21.3291894 20.1509095,21.3822894 L20.1509095,21.3822894 Z M14.4300596,19.0436395 C15.7409096,21.3147894 17.0067595,23.5085394 18.3090595,25.7657393 C18.7757095,24.9602393 19.2108595,24.2267394 19.6199095,23.4792894 C19.6716595,23.3852394 19.6262095,23.1957894 19.5632095,23.0868894 C18.8333095,21.8183394 18.0953095,20.5551895 17.3474095,19.2969895 C17.2826095,19.1880895 17.1386095,19.0571395 17.0283595,19.0548895 C16.1954096,19.0346395 15.3611096,19.0436395 14.4300596,19.0436395 L14.4300596,19.0436395 Z M39.184559,22.2399894 L27.4922093,22.2399894 C27.8895593,22.9320894 28.2738593,23.5593894 28.6122592,24.2109894 C28.7814592,24.5349894 28.9916092,24.6276893 29.3475592,24.6263538 C32.4593091,24.6114893 35.5710591,24.6177893 38.682359,24.6164393 C38.841659,24.6164393 39.001409,24.6011393 39.184109,24.5916893 C39.184559,23.7942894 39.184559,23.0292894 39.184559,22.2399894 L39.184559,22.2399894 Z M8.94950976,35.6396391 C10.9101597,32.2421391 12.8460597,28.8873892 14.8152596,25.4745893 C13.9161596,25.4745893 13.1259597,25.4601893 12.3375597,25.4871893 C12.1827597,25.4921393 11.9766597,25.6217393 11.8911597,25.7558393 C11.5464597,26.2949393 11.2386597,26.8578893 10.9187097,27.4127393 C9.57230975,29.7446392 8.22590978,32.0774392 6.86600982,34.4345391 C7.5513598,34.8314391 8.21825978,35.2170891 8.94950976,35.6396391 L8.94950976,35.6396391 Z M27.9530093,37.653839 C25.9838093,34.2446391 24.0497094,30.8975392 22.0850094,27.4959893 C21.6606594,28.2326393 21.3038094,28.8990892 20.8983594,29.5353892 C20.7179095,29.8184392 20.7507595,30.0150892 20.9082594,30.2855392 C22.4288094,32.8959891 23.9358594,35.5154391 25.4478593,38.131739 C25.5855593,38.369789 25.7295593,38.603789 25.8807593,38.855789 C26.5872593,38.445839 27.2514593,38.060639 27.9530093,37.653839 L27.9530093,37.653839 Z M31.4472592,4.74083987 C29.4852592,8.13923978 27.5529593,11.4885897 25.5774593,14.9126396 C26.4783593,14.9126396 27.2672093,14.8914896 28.0538093,14.9225396 C28.3908592,14.9355896 28.5456592,14.7996896 28.6959592,14.5283396 C29.4686092,13.1333397 30.2592592,11.7486897 31.0422592,10.3599897 C31.8653092,8.90153976 32.6861091,7.4426398 33.5312091,5.94278984 C32.8368591,5.54183985 32.1717591,5.15843986 31.4472592,4.74083987 L31.4472592,4.74083987 Z M20.3561095,18.1593895 C19.9520095,17.4551395 19.5686095,16.8273896 19.2284095,16.1762396 C19.0610095,15.8553896 18.8553595,15.7518896 18.4958095,15.7527838 C12.9005097,15.7644896 7.30565981,15.7608896 1.71035995,15.7617896 C1.55015996,15.7617896 1.38950996,15.7752896 1.21580997,15.7829396 L1.21580997,18.1593895 L20.3561095,18.1593895 Z M25.6589093,0.37268999 C25.8497093,0.498689987 26.0409593,0.623789983 26.2691093,0.77363998 C26.2034093,0.902339976 26.1449093,1.03193997 26.0747093,1.15388997 C24.3584094,4.13153989 22.6452594,7.11143981 20.9150094,10.0814397 C20.7440095,10.3761897 20.7399595,10.5908397 20.9168094,10.8752397 C21.3069594,11.5029897 21.6642594,12.1518897 22.0859094,12.8804397 C24.1991094,9.22463976 26.2808093,5.62238985 28.3832092,1.98458995 C28.6500592,2.13623994 28.8741592,2.26403994 29.1279592,2.40893994 C28.3125592,3.8228399 27.5097593,5.21783986 26.7042593,6.61148982 C25.4046593,8.86148977 24.1028094,11.1105897 22.8036594,13.3605896 C22.4792094,13.9217396 23.0439594,14.8658396 23.6834094,14.9238896 C24.3327594,14.9828396 24.6945593,14.7677396 25.0275593,14.1759896 C26.8833593,10.8801897 28.7945092,7.6158898 30.6872092,4.34123988 C31.0346092,3.7404899 31.3086592,3.6693899 31.9229092,4.02173989 C32.6222091,4.42178988 33.3215091,4.82273987 34.0176591,5.22773986 C34.4874591,5.50133985 34.5774591,5.85503984 34.3016091,6.33338983 C32.7572091,9.01178976 31.2119092,11.6892897 29.6666092,14.3681396 C29.5788592,14.5202396 29.4983092,14.6772896 29.3745592,14.9067896 L40.0512589,14.9067896 L40.0512589,15.7388396 L23.7374094,15.7388396 C24.2180094,16.5713396 24.6320093,17.3241895 25.0919093,18.0477895 C25.1625593,18.1584895 25.4442593,18.1688395 25.6278593,18.1692895 C30.2237092,18.1755895 34.8195591,18.1742395 39.415859,18.1742395 L40.0395589,18.1742395 L40.0395589,19.0422895 L39.474359,19.0422895 C35.4554091,19.0422895 31.4360092,19.0418395 27.4166093,19.0427395 C26.7510593,19.0427395 26.2448093,19.9764895 26.5166093,20.5826395 C26.7902093,21.1923894 27.1826093,21.3606894 27.8427593,21.3543894 C31.6146592,21.3183894 35.3865591,21.3363894 39.158909,21.3368394 C39.8366089,21.3368394 40.0764589,21.5721894 40.0769089,22.2368394 C40.0775839,23.0112894 40.0775839,23.7852894 40.0769089,24.5597393 C40.0769089,25.2473393 39.8546089,25.4750393 39.181859,25.4750393 C36.117809,25.4754893 33.0542091,25.4750393 29.9901592,25.4750393 L29.3570092,25.4750393 C31.1561092,28.5944392 32.9169591,31.6481392 34.7048091,34.7477391 C34.4609091,34.8903891 34.2386091,35.0199891 33.9627591,35.1810891 C27.4877093,23.9666394 21.0194094,12.7634397 14.5281596,1.52153996 C13.8410096,1.91708995 13.1763597,2.29958994 12.4428597,2.72123993 C18.9206095,13.9415396 25.3862093,25.1415893 31.8734092,36.379439 C31.6290592,36.523439 31.4085592,36.653939 31.1507092,36.805589 C31.0544092,36.652589 30.9662092,36.522089 30.8874592,36.385739 C28.8624592,32.8833891 26.8388093,29.3801392 24.8147093,25.8777893 C24.4691094,25.2788393 23.3958594,25.3112393 23.0007594,25.8791393 C22.6358094,26.4029393 22.6515594,26.8047893 22.9850094,27.3681893 C24.9195593,30.6369892 26.8023593,33.9363891 28.7022592,37.225889 C29.0204092,37.777139 28.9421092,38.079989 28.4030092,38.393189 C27.6911093,38.805839 26.9792093,39.217139 26.2655093,39.625739 C25.7511593,39.9200389 25.4339093,39.8322889 25.1360093,39.316589 C23.6064594,36.667439 22.0769094,34.0187391 20.5469095,31.3695892 C20.4420595,31.1882392 20.3331595,31.0086892 20.1941095,30.7728892 C18.3923095,33.8904891 16.6269596,36.945989 14.8445096,40.0311889 C14.5902596,39.8876389 14.3661596,39.7602889 14.0984096,39.608639 C14.8085096,38.375639 15.5015096,37.170539 16.1967596,35.966339 C18.5237095,31.9365892 20.8484094,27.9045893 23.1861594,23.8806894 C23.3652594,23.5724394 23.3850594,23.3465394 23.1879594,23.0378394 C22.7897094,22.4159394 22.4396094,21.7634394 22.0287594,21.0533394 C18.6794095,26.8529393 15.3602096,32.6007891 12.0153597,38.392739 C11.7678597,38.253239 11.5469097,38.128589 11.2886097,37.983689 C11.3808597,37.803689 11.4537597,37.644389 11.5410597,37.493639 C13.5386096,34.0326891 15.5384096,30.5721892 17.5359595,27.1107893 C17.9387095,26.4128393 17.4027595,25.5204893 16.6116596,25.4592893 C16.0023596,25.4124893 15.6923096,25.6374893 15.3957596,26.1608393 C13.5147596,29.4804892 11.5950597,32.7776391 9.68705974,36.081989 C9.37835975,36.617039 9.06110976,36.698039 8.51885977,36.385739 C7.80605979,35.974889 7.09280981,35.5658391 6.38180983,35.1531891 C5.88410984,34.8642891 5.79995985,34.5555891 6.08480984,34.0610391 C7.6539598,31.3398892 9.22490976,28.6205392 10.7945097,25.9002893 C10.8588597,25.7886893 10.9155597,25.6721393 11.0136597,25.4876393 L0.36080999,25.4876393 L0.36080999,24.6488393 L16.6629596,24.6488393 C16.1697596,23.7965394 15.7517096,23.0445894 15.2945096,22.3178394 C15.2310596,22.2170394 14.9723096,22.2093894 14.8040096,22.2089394 C10.1915097,22.2035394 5.57945985,22.2044394 0.966959974,22.2044394 L0.36035999,22.2044394 L0.36035999,21.3363894 L0.968309974,21.3363894 L12.9270597,21.3363894 C13.6596596,21.3363894 14.1632096,20.4201895 13.8621596,19.7604895 C13.5989096,19.1835895 13.2402596,19.0197895 12.6129597,19.0251895 C8.82485977,19.0584895 5.03630987,19.0418395 1.24730997,19.0418395 C0.566009985,19.0418395 0.333359991,18.8123395 0.332459991,18.1377895 C0.331109991,17.3304895 0.329309991,16.5236396 0.332459991,15.7163396 C0.335159991,15.1371896 0.558809985,14.9135396 1.13480997,14.9130896 C4.23170989,14.9112896 7.32860981,14.9121896 10.4255097,14.9121896 L11.0447097,14.9121896 C9.23840976,11.7815397 7.4757598,8.72603977 5.68925985,5.62958985 C5.93090984,5.48873985 6.15410984,5.35868986 6.42815983,5.19983986 C6.86285982,5.94908984 7.29035981,6.68078982 7.7142598,7.4147398 C9.08720976,9.79343974 10.4624097,12.1703397 11.8263597,14.5544396 C11.9726097,14.8104896 12.1278597,14.9310896 12.4392597,14.9207396 C13.1952597,14.8955396 13.9530596,14.9126396 14.8184096,14.9126396 C12.7025097,11.2442397 10.6226097,7.6388398 8.52200977,3.99743989 C8.77445977,3.8511899 8.99450976,3.7233899 9.26090975,3.56948991 C9.85625974,4.59368988 10.4345097,5.58278985 11.0069097,6.57458983 C12.5360097,9.22373976 14.0619596,11.8751397 15.5910596,14.5242896 C15.9258596,15.1052396 16.9887595,15.0773396 17.3757595,14.5319396 C17.7560095,13.9955396 17.7434095,13.5761396 17.3987095,12.9938397 C15.4889096,9.76733974 13.6317596,6.50933983 11.7579597,3.26168991 C11.3556597,2.56463993 11.4231597,2.31758994 12.1067097,1.92383995 C12.7758597,1.53773996 13.4445596,1.14983997 14.1141596,0.76373998 C14.6550596,0.451439988 14.9538596,0.535139986 15.2729096,1.08818997 C16.7691596,3.6801899 18.2645095,6.27308983 19.7607595,8.86508977 C19.8917095,9.09188976 20.0294095,9.31508975 20.1851095,9.57518975 C20.2751095,9.44423975 20.3547595,9.34343975 20.4186595,9.23363976 C22.0566594,6.40043983 23.6942094,3.56633991 25.3281593,0.729989981 C25.3907093,0.621539984 25.4172593,0.492839987 25.4604593,0.37358999 C25.5270593,0.37268999 25.5932093,0.37268999 25.6589093,0.37268999 L25.6589093,0.37268999 Z" id="Fill-1" fill="#FEFEFE" mask="url(#mask-2)"></path></g> <path d="M63.5508883,78.8260929 C63.5432383,78.6618429 63.5279383,78.4975929 63.5279383,78.3333429 C63.5265883,72.4873931 63.5269663,66.6409932 63.5269663,60.7950434 L63.5269663,60.2505434 C64.6637383,60.2505434 65.7617383,60.2388434 66.8588382,60.2671934 C66.9771882,60.2698934 67.1198382,60.4845434 67.2017382,60.6289934 C68.9585382,63.7146433 70.7067881,66.8047932 72.4590881,69.8926931 C73.708738,72.0949931 74.961088,74.295493 76.299388,76.491043 L76.299388,60.2806934 L78.4575879,60.2806934 C78.4706379,60.3981434 78.4971879,60.5223434 78.4971879,60.6469934 C78.4994379,66.5919432 78.4994379,72.5368931 78.4980879,78.4818429 C78.4980879,78.5965929 78.4836879,78.7117929 78.4755879,78.8265429 L75.016438,78.8265429 C74.954338,78.6946929 74.900338,78.5578929 74.828788,78.4309929 C71.9735381,73.3963931 69.1164882,68.3622432 66.2598882,63.3285433 C66.1104882,63.0648433 65.9570383,62.8038433 65.8049383,62.5414933 C65.7684883,62.5482433 65.7320383,62.5549933 65.6955883,62.5617433 L65.6955883,63.1255933 C65.6955883,68.1498432 65.6964883,73.1731931 65.6928883,78.1978929 C65.6928883,78.4071429 65.6501383,78.6168429 65.6271883,78.8265429 C64.9346383,78.8260929 64.2429883,78.8260929 63.5508883,78.8260929" id="Fill-4" fill="#FEFEFE"></path> <g id="Group-8" transform="translate(0.000000, 59.926948)"><mask id="mask-4" fill="white"><use xlink:href="#path-3"></use></mask> <g id="Clip-7"></g> <path d="M3.17551492,8.05738479 C4.92646487,8.05738479 6.62206482,8.05828479 8.31676478,8.05603479 C8.53051477,8.05558479 8.75146477,8.07178479 8.95711476,8.02633479 C9.32341475,7.94488479 9.70321474,7.87018479 10.0380147,7.7099848 C11.9613147,6.78928482 12.3316647,4.42318488 10.7760147,3.06013492 C10.1172147,2.48233493 9.32926475,2.22628494 8.46256478,2.22178494 C6.83221482,2.21413494 5.20231486,2.21908494 3.57241491,2.22088494 C3.44551491,2.22088494 3.31816491,2.24338494 3.17596492,2.25643494 C3.17551492,4.18963489 3.17551492,6.09268484 3.17551492,8.05738479 L3.17551492,8.05738479 Z M3.18721492,10.0067847 L3.18721492,16.8850346 C3.25336491,16.9025846 3.28396491,16.9178846 3.31456491,16.9178846 C5.09071487,16.9205846 6.86641482,16.9273346 8.64256477,16.9228346 C10.4938647,16.9178846 11.9437647,15.5809346 12.0585147,13.7849846 C12.1777647,11.9242347 10.8255147,10.1368347 9.02731476,10.0319847 C7.09681481,9.91993474 5.15416486,10.0067847 3.18721492,10.0067847 L3.18721492,10.0067847 Z M-0.000134999996,0.318284992 C2.89651492,0.319184992 5.79316485,0.311534992 8.68981477,0.323234991 C11.0937147,0.332684991 13.2879146,2.15563494 13.6731146,4.51003488 C13.9467146,6.18268484 13.2564146,7.5232348 12.0517647,8.63788477 C11.9316147,8.74903477 11.8011147,8.84983477 11.7057147,8.92993476 C12.0540147,9.30523475 12.4131147,9.66208474 12.7384647,10.0472847 C15.3547646,13.1405847 13.8211646,17.8286845 9.89761474,18.7484845 C9.69466474,18.7961845 9.49306475,18.8488345 9.29056475,18.8996845 L-0.000134999996,18.8996845 L-0.000134999996,16.9228346 L1.07221497,16.9228346 L1.07221497,2.19658494 L-0.000134999996,2.19658494 L-0.000134999996,0.318284992 Z" id="Fill-6" fill="#FEFEFE" mask="url(#mask-4)"></path></g> <path d="M98.7400774,69.0759432 C100.209327,69.0759432 101.634927,69.0750432 103.060527,69.0763954 C104.076627,69.0772932 105.006327,68.8009932 105.828027,68.1979932 C107.390427,67.0522932 107.714427,65.1352933 106.578177,63.7596433 C105.973827,63.0283933 105.217377,62.4150433 104.282277,62.3416933 C102.470577,62.1985934 100.645827,62.2174934 98.8260274,62.1720396 C98.8026274,62.1715934 98.7783274,62.2120934 98.7405274,62.2462934 C98.7400774,64.4850433 98.7400774,66.7359432 98.7400774,69.0759432 M96.7596274,78.8260929 C96.7366774,78.6654429 96.6939274,78.5043429 96.6939274,78.3436929 C96.6907774,72.4509431 96.6912274,66.5581932 96.6921274,60.6658934 C96.6921274,60.5524934 96.7020274,60.4386434 96.7087774,60.2901434 C96.8442274,60.2743934 96.9679774,60.2491934 97.0917274,60.2491934 C99.2152774,60.2469434 101.340177,60.1983434 103.461477,60.2617934 C105.519327,60.3238934 107.214477,61.2126434 108.411927,62.9005933 C110.085927,65.2599433 109.261077,68.4535932 106.608327,70.0222931 C106.160577,70.2864431 105.675027,70.4871431 105.164727,70.7368931 C105.477027,71.3254931 105.787977,71.9158931 106.102527,72.5049431 C107.155077,74.475493 108.210327,76.444693 109.260627,78.4165929 C109.328127,78.5434929 109.361427,78.6892929 109.410477,78.8260929 L107.236077,78.8260929 C107.169027,78.7131429 107.098827,78.6024429 107.036727,78.4867929 C105.780777,76.140493 104.520327,73.796893 103.276977,71.4442931 C103.113177,71.1337931 102.940827,70.9947431 102.567327,71.0046431 C101.431977,71.0347931 100.296177,71.0145431 99.1608274,71.0167931 C99.0204274,71.0172431 98.8800274,71.0352431 98.7252274,71.0464931 C98.7252274,73.4827931 98.7274774,75.869143 98.7216274,78.2545929 C98.7211774,78.4449429 98.6662774,78.6352929 98.6370274,78.8251929 C98.0115274,78.8260929 97.3855774,78.8260929 96.7596274,78.8260929" id="Fill-9" fill="#FEFEFE"></path> <g id="Group-13" transform="translate(31.949999, 59.926948)"><mask id="mask-6" fill="white"><use xlink:href="#path-5"></use></mask> <g id="Clip-12"></g> <path d="M8.17712978,18.8991445 C7.81352979,18.8149945 7.4458798,18.7470445 7.08767981,18.6444445 C3.8175299,17.7048445 1.74347995,15.5236946 0.858779977,12.3025947 C-0.133469996,8.68954477 0.618029984,5.40814486 3.27707991,2.69554493 C6.28172983,-0.36805499 10.9761297,-0.576404985 14.3016296,2.13529494 C14.4397796,2.24824494 14.5779296,2.36119494 14.7889796,2.53399493 L14.7889796,0.913544976 L15.8172296,0.913544976 L16.8166796,0.913544976 L16.8166796,6.11464484 L14.9316296,6.11464484 C13.9893296,4.09594489 12.4683297,2.75179493 10.2826797,2.31844494 C7.92872979,1.85269495 5.95727984,2.69824493 4.42052988,4.47889488 C1.87712995,7.4245948 2.03822995,12.1396947 4.72292987,14.9535446 C7.6758298,18.0481945 12.6771297,17.2791445 14.7115796,13.4158946 C14.8866296,13.0828947 15.0450296,12.7413447 15.2308796,12.3637947 C15.7087796,12.8088447 16.1772296,13.2183446 16.6038296,13.6674446 C16.6866296,13.7547446 16.6654796,14.0292446 16.5925796,14.1633446 C15.1980296,16.7332946 13.1145297,18.3622945 10.1805297,18.8158945 C10.1031297,18.8280445 10.0306797,18.8712445 9.95552974,18.9000445 C9.36287975,18.8991445 8.76977977,18.8991445 8.17712978,18.8991445" id="Fill-11" fill="#FEFEFE" mask="url(#mask-6)"></path></g> <path d="M121.575822,70.2145781 C120.564672,67.4484282 119.570172,64.7263783 118.527072,61.8706784 C117.487572,64.7371783 116.501622,67.4578782 115.502172,70.2145781 L121.575822,70.2145781 Z M110.398722,78.8262279 C110.427522,78.6691779 110.434272,78.5040279 110.487372,78.3559779 C112.621272,72.4587281 114.760572,66.5641782 116.888622,60.6651284 C116.997972,60.3613784 117.119472,60.2191784 117.470472,60.2371784 C118.143672,60.2713784 118.821372,60.2713784 119.495022,60.2380784 C119.886072,60.2187284 120.055722,60.3384284 120.193872,60.7200284 C121.656372,64.7830783 123.143622,68.8362282 124.625022,72.8920781 C125.278422,74.680828 125.935422,76.468228 126.584322,78.2587779 C126.649572,78.4387779 126.667122,78.6363279 126.706722,78.8257779 L124.730322,78.8257779 C123.970722,76.746328 123.203472,74.669128 122.459622,72.5842781 C122.334522,72.2328281 122.162172,72.1167281 121.787772,72.1194281 C119.631372,72.1383281 117.474522,72.1414781 115.319022,72.1180781 C114.908172,72.1135781 114.758772,72.2629781 114.629172,72.6265781 C113.893872,74.698378 113.129772,76.760728 112.376022,78.8257779 C111.716772,78.8262279 111.057522,78.8262279 110.398722,78.8262279 L110.398722,78.8262279 Z" id="Fill-14" fill="#FEFEFE"></path> <path d="M16.4065496,78.8260929 L16.4065496,60.2779934 L26.6363993,60.2779934 L26.6363993,62.1346934 L18.4000495,62.1346934 L18.4000495,67.9842432 L18.9287995,67.9842432 C20.9380494,67.9842432 22.9468494,67.9954932 24.9565493,67.9752432 C25.3732493,67.9711932 25.4821493,68.1007932 25.4785493,68.5053432 C25.4645993,69.9003431 25.4794493,69.9003431 24.1010994,69.9003431 L18.9629995,69.9003431 L18.4027495,69.9003431 L18.4027495,76.852843 L26.6858993,76.852843 L26.6858993,78.8256429 C23.2591494,78.8260929 19.8328495,78.8260929 16.4065496,78.8260929" id="Fill-16" fill="#FEFEFE"></path> <path d="M50.9989936,78.8260929 C51.0025936,72.8469431 51.0057436,66.8677932 51.0093436,60.8890934 L51.0093436,60.2770934 L61.2360434,60.2770934 L61.2360434,62.1360434 L53.0082436,62.1360434 L53.0082436,67.9873932 L60.0498434,67.9873932 L60.0498434,69.8872931 L53.0050936,69.8872931 L53.0050936,76.850143 L61.2783434,76.850143 L61.2783434,78.8265429 C57.8515935,78.8260929 54.4252936,78.8260929 50.9989936,78.8260929" id="Fill-18" fill="#FEFEFE"></path> <path d="M86.5795477,78.8260929 C86.5826977,73.3437431 86.5849477,67.8618432 86.5867477,62.3794933 C86.5867477,62.3308933 86.5723477,62.2827434 86.5561477,62.1792434 L80.1764979,62.1792434 L80.1764979,60.2874434 L95.0503475,60.2874434 L95.0503475,62.1517934 L88.6247977,62.1517934 L88.6247977,62.7871933 C88.6247977,67.9239432 88.6256977,73.0606931 88.6216477,78.1978929 C88.6216477,78.4071429 88.5788977,78.6163929 88.5563977,78.8260929 L86.5795477,78.8260929 Z" id="Fill-20" fill="#FEFEFE"></path> <path d="M128.189157,78.8260929 C128.181057,78.6784929 128.165757,78.5308929 128.165757,78.3832929 C128.164857,72.5062931 128.165307,66.6301932 128.164857,60.7536434 L128.164857,60.2806934 L130.146657,60.2806934 L130.146657,76.849243 L139.555256,76.849243 L139.555256,78.8260929 L128.189157,78.8260929 Z" id="Fill-22" fill="#FEFEFE"></path></g></g></g></svg>