<?xml version="1.0" encoding="UTF-8"?><svg id="a" xmlns="http://www.w3.org/2000/svg" viewBox="0 0 525 150"><defs><style>.b{fill:#31112a;}.c{fill:#2300ff;}</style></defs><rect class="c" x="183.69" y="50.75" width="15.37" height="15.41"/><path d="M243.3,3.14l-20.45,1.32-16.75,61.69h14.37l3.71-15.41h16.02l3.62,15.41h16.83L243.3,3.14Zm-16.45,36.5l5.43-22.58,5.31,22.58h-10.74Z"/><path d="M291.53,66.86c-11.99,0-26.09-5.73-26.09-30.93,0-20.89,8.99-32.79,26.79-32.79,9.43,0,14.45,1.78,18.6,3.28l-3.26,10.65c-6.6-1.95-10.93-3.05-16.28-2.84-6.18,.24-8.57,4.97-9.12,8.8-.49,3.43-.78,7.46-.78,11.67,0,12.96,5.46,19.3,15.86,20.71v-20.07h13.75v28.71c-5.46,1.76-12.16,2.82-19.48,2.82Z"/><path d="M419.52,41.66c6.17-3.97,9.34-10.75,9.34-18.77,0-14.9-9.87-19.74-25.03-19.74-4.32,0-18.07,1.02-18.07,1.02v62h15.51v-21.42c.88,.09,2.82,.35,4.76,.35l10.05,21.06h17.01l-13.57-24.5Zm-9.34-8.2c-2.12,0-6.26-.18-8.9-.62V13.72c8.2,0,11.63,2.03,11.63,9.34,0,4.67-1.15,8.11-2.73,10.4Z"/><polygon points="458.93 66.16 443.42 66.16 443.42 4.46 458.93 3.14 458.93 66.16"/><path d="M505.32,3.14l-20.45,1.32-16.75,61.69h14.37l3.71-15.41h16.02l3.62,15.41h16.83L505.32,3.14Zm-16.45,36.5l5.43-22.58,5.31,22.58h-10.74Z"/><path d="M349,3.14c-15.86,0-26.62,10.66-26.62,31.9,0,18.51,7.84,31.82,25.47,31.82,15.51,0,26.88-10.58,26.88-31.82s-7.93-31.9-25.74-31.9Zm9.89,34.14c-.34,8.27-4.55,17.98-10.61,17.98-6.88,0-9.74-8.91-10.05-16.12,0-.05-.08-1.73-.08-3.45,0-1.71,.07-3.17,.08-3.45,.35-8.31,4.29-18.06,10.5-18.06,6.97,0,9.79,7.86,10.16,16.21,0,.03,.08,1.73,.08,3.45s-.08,3.44-.08,3.45Z"/><g><path class="b" d="M31.02,103.14l-.98-.31c-7.07-2.27-11.73-3.76-11.73-8.4,0-3.68,2.99-6.15,7.45-6.15,4.22,0,9.08,2.28,13.08,6.11l9.05-9.17c-5.27-5.56-13.11-8.74-21.62-8.74-11.64,0-23.39,5.99-23.39,19.38,0,10.38,6.99,14.97,18.28,19.02,.95,.33,1.86,.64,2.73,.94,6.47,2.19,10.74,3.64,10.74,8.04,0,4-3.65,6.8-8.88,6.8s-11.08-2.76-15.64-7.23l-8.72,10.63c6,5.76,15.25,9.18,24.87,9.18,14.75,0,23.91-7.62,23.91-19.9s-9.47-16.95-19.17-20.18Z"/><path class="b" d="M68.32,49.31c-5.11,0-9.27,4.1-9.27,9.14s4.16,9.14,9.27,9.14,9.27-4.01,9.27-9.14-4.07-9.14-9.27-9.14Z"/><rect class="b" x="60.61" y="77.77" width="15.43" height="64.15"/><rect class="b" x="183.69" y="77.77" width="15.43" height="64.15"/><path class="b" d="M239.47,103.14l-.98-.31c-7.07-2.27-11.73-3.76-11.73-8.4,0-3.68,2.99-6.15,7.45-6.15,4.22,0,9.08,2.28,13.08,6.11l9.05-9.17c-5.27-5.56-13.11-8.74-21.62-8.74-11.65,0-23.39,5.99-23.39,19.38,0,10.38,6.99,14.97,18.28,19.02,.95,.33,1.86,.64,2.73,.94,6.47,2.19,10.74,3.64,10.74,8.04,0,4-3.65,6.8-8.88,6.8s-11.08-2.76-15.64-7.23l-8.72,10.63c6,5.76,15.25,9.18,24.87,9.18,14.75,0,23.91-7.62,23.91-19.9s-9.47-16.95-19.17-20.18Z"/><polygon class="b" points="107.18 92.99 127.74 92.99 127.74 77.77 91.63 77.77 91.63 141.93 107.18 141.93 107.18 92.99"/><polygon class="b" points="153.21 92.99 173.77 92.99 173.77 77.77 137.66 77.77 137.66 141.93 153.21 141.93 153.21 92.99"/></g></svg>