<svg id="svg" version="1.1" xmlns="http://www.w3.org/2000/svg" xmlns:xlink="http://www.w3.org/1999/xlink" width="400" height="400" viewBox="0, 0, 400,400"><g id="svgg"><path id="path0" d="M243.818 115.700 C 243.521 116.415,241.478 122.130,239.279 128.400 C 237.080 134.670,233.302 145.290,230.883 152.000 C 225.579 166.710,220.000 182.568,220.000 182.934 C 220.000 183.345,230.323 183.248,230.578 182.835 C 230.702 182.635,231.150 180.790,231.574 178.735 C 232.329 175.079,234.945 167.095,235.717 166.095 C 236.020 165.702,239.130 165.613,249.737 165.695 L 263.366 165.800 264.694 170.000 C 265.425 172.310,266.381 175.910,266.819 178.000 C 267.258 180.090,267.715 182.115,267.835 182.500 C 268.030 183.123,268.671 183.200,273.654 183.200 L 279.254 183.200 278.975 182.300 C 278.822 181.805,276.303 174.020,273.379 165.000 C 270.455 155.980,265.680 141.220,262.769 132.200 C 259.857 123.180,257.317 115.485,257.123 115.100 C 256.811 114.479,256.076 114.400,250.566 114.400 L 244.359 114.400 243.818 115.700 M290.644 114.731 C 290.553 114.879,290.655 125.668,290.872 138.706 C 291.132 154.381,291.130 165.832,290.867 172.506 C 290.648 178.058,290.603 182.741,290.767 182.912 C 290.931 183.084,293.353 183.174,296.149 183.112 L 301.233 183.000 301.317 148.800 L 301.400 114.600 296.104 114.531 C 293.192 114.493,290.734 114.583,290.644 114.731 M195.700 125.083 L 192.400 126.515 192.400 130.458 L 192.400 134.400 189.000 134.400 L 185.600 134.400 185.596 135.500 C 185.593 136.105,185.480 137.275,185.343 138.100 L 185.095 139.600 188.685 139.600 L 192.274 139.600 192.547 148.747 C 192.697 153.779,192.697 161.154,192.548 165.137 C 192.202 174.347,192.705 176.743,195.592 179.630 C 199.354 183.392,203.450 184.065,209.791 181.962 C 214.055 180.548,214.092 180.509,214.564 176.849 C 214.883 174.376,215.051 174.411,210.600 176.014 C 207.582 177.101,203.784 176.985,202.104 175.753 C 199.426 173.789,199.209 171.165,199.864 148.665 L 200.128 139.600 207.214 139.600 L 214.300 139.600 214.550 138.350 C 214.688 137.663,214.800 136.493,214.800 135.750 L 214.800 134.400 207.372 134.400 L 199.944 134.400 200.038 129.100 C 200.148 122.857,200.365 123.059,195.700 125.083 M251.622 128.100 C 252.491 131.043,258.178 149.287,259.679 153.946 C 260.361 156.065,260.407 156.550,259.949 156.840 C 259.346 157.222,240.433 157.341,239.463 156.969 C 238.849 156.733,243.650 142.175,249.645 126.100 C 250.217 124.566,250.733 125.089,251.622 128.100 M64.710 134.392 C 57.229 136.743,53.233 142.678,54.386 149.726 C 55.167 154.500,58.118 157.347,66.632 161.538 C 75.545 165.925,76.647 167.011,76.311 171.069 C 75.668 178.827,65.087 180.416,56.274 174.078 C 53.893 172.366,53.708 172.523,53.016 176.843 C 52.390 180.752,52.032 180.308,57.190 182.034 C 71.300 186.758,83.600 180.646,83.600 168.911 C 83.600 163.024,81.309 160.279,73.036 156.254 C 63.469 151.599,61.605 150.005,61.601 146.480 C 61.596 139.591,70.253 137.087,78.333 141.642 C 80.912 143.095,81.386 142.854,81.772 139.893 C 81.922 138.742,82.142 137.405,82.260 136.921 C 82.876 134.413,70.378 132.612,64.710 134.392 M158.786 134.333 C 149.328 137.184,145.172 146.839,150.219 154.235 C 152.004 156.850,153.895 158.182,160.456 161.443 C 169.073 165.725,170.400 166.967,170.400 170.742 C 170.400 178.204,159.453 180.372,150.999 174.585 C 147.455 172.158,147.525 172.130,147.018 176.200 C 146.882 177.300,146.677 178.672,146.564 179.249 C 146.374 180.220,146.548 180.374,148.879 181.301 C 163.460 187.098,176.837 181.715,177.510 169.781 C 177.879 163.237,175.534 160.502,165.071 155.270 C 157.096 151.283,155.600 149.926,155.600 146.682 C 155.600 139.703,163.435 137.158,171.772 141.429 C 175.066 143.116,175.177 143.049,175.813 138.993 L 176.288 135.964 175.005 135.428 C 170.667 133.615,162.904 133.091,158.786 134.333 M335.330 134.395 C 332.746 135.314,330.161 136.782,326.751 139.269 C 323.196 141.861,323.200 141.863,323.200 137.573 C 323.200 134.311,323.130 133.966,322.500 134.141 C 322.115 134.249,320.450 134.452,318.800 134.593 L 315.800 134.850 315.800 158.825 L 315.800 182.800 319.607 182.800 L 323.414 182.800 323.293 165.300 L 323.172 147.800 326.086 145.433 C 334.857 138.307,343.843 138.715,345.825 146.328 C 346.306 148.176,346.307 150.486,345.829 174.500 L 345.664 182.800 349.732 182.800 L 353.800 182.801 353.701 174.300 C 353.647 169.625,353.557 160.760,353.501 154.600 C 353.404 143.869,353.361 143.316,352.480 141.400 C 349.784 135.542,341.555 132.181,335.330 134.395 M103.800 134.202 C 103.580 134.279,101.843 134.459,99.941 134.603 L 96.481 134.865 96.673 153.733 C 96.878 173.884,97.011 175.307,98.922 177.896 C 104.139 184.960,114.623 184.932,123.342 177.830 C 125.604 175.988,126.800 175.702,126.800 177.003 C 126.800 181.511,132.683 184.477,137.506 182.402 C 139.688 181.464,139.800 181.295,140.218 178.328 L 140.483 176.455 137.486 176.682 C 132.906 177.028,133.119 177.796,133.161 161.114 C 133.180 153.571,133.312 144.423,133.453 140.785 L 133.711 134.170 130.555 134.456 C 128.820 134.614,127.085 134.756,126.700 134.772 C 126.044 134.798,126.000 135.914,126.000 152.369 L 126.000 169.938 123.900 171.788 C 117.521 177.406,109.234 178.401,105.906 173.948 C 103.785 171.109,103.760 170.744,104.211 149.100 C 104.384 140.795,104.453 134.014,104.363 134.032 C 104.273 134.049,104.020 134.126,103.800 134.202 M59.800 199.477 C 58.700 199.549,57.372 199.706,56.848 199.825 L 55.897 200.041 56.154 226.721 C 56.295 241.394,56.258 256.640,56.073 260.600 C 55.636 269.913,55.649 269.941,59.655 268.143 L 62.010 267.086 65.105 268.038 C 81.350 273.031,93.413 262.951,93.393 244.400 C 93.372 224.870,80.052 217.008,65.718 228.064 C 62.523 230.528,62.637 231.104,62.951 214.138 C 63.213 199.950,63.191 199.204,62.514 199.272 C 62.121 199.312,60.900 199.404,59.800 199.477 M313.000 199.477 C 311.900 199.549,310.616 199.695,310.147 199.800 L 309.293 199.992 309.347 234.196 L 309.400 268.400 312.951 268.400 L 316.502 268.400 316.228 266.700 C 315.874 264.512,315.886 224.310,316.245 210.100 C 316.511 199.547,316.495 199.202,315.760 199.272 C 315.342 199.312,314.100 199.404,313.000 199.477 M195.210 223.441 C 189.014 225.106,185.449 229.538,185.430 235.600 C 185.411 241.419,187.244 243.510,196.540 248.272 C 204.075 252.132,206.000 253.816,206.000 256.551 C 206.000 264.118,196.607 266.160,187.692 260.531 C 186.533 259.799,185.430 259.200,185.241 259.200 C 184.959 259.200,184.000 264.178,184.000 265.638 C 184.000 266.134,187.540 267.715,190.010 268.322 C 201.651 271.182,211.859 266.003,212.692 256.816 C 213.263 250.516,211.253 248.078,201.270 242.960 C 193.141 238.793,191.416 236.854,192.444 233.037 C 193.841 227.848,200.408 226.517,207.310 230.024 C 208.582 230.671,209.774 231.200,209.957 231.200 C 210.320 231.200,211.627 225.168,211.358 224.733 C 210.449 223.261,199.222 222.363,195.210 223.441 M232.400 223.323 C 226.196 225.122,222.400 229.644,222.400 235.238 C 222.400 241.091,224.657 243.873,232.578 247.782 C 241.185 252.029,243.587 254.258,243.060 257.509 C 241.975 264.193,233.323 265.768,225.067 260.783 C 221.836 258.833,221.987 258.749,221.396 262.825 L 220.929 266.046 222.027 266.614 C 232.649 272.107,246.413 268.360,249.060 259.254 C 251.078 252.312,248.543 248.184,239.400 243.526 C 229.479 238.472,227.894 236.626,229.751 232.287 C 231.791 227.519,238.191 226.680,244.902 230.303 C 245.948 230.867,246.919 231.214,247.060 231.073 C 247.466 230.668,248.360 225.029,248.065 224.736 C 246.622 223.301,235.835 222.328,232.400 223.323 M272.800 223.531 C 264.612 226.265,260.322 232.199,259.207 242.334 C 256.913 263.179,271.694 274.510,291.070 266.760 L 293.139 265.932 293.595 263.066 C 293.846 261.490,294.124 259.975,294.213 259.700 C 294.472 258.899,293.584 259.122,290.711 260.578 C 277.664 267.190,266.000 260.960,266.000 247.380 L 266.000 245.200 280.151 245.200 C 296.343 245.200,295.120 245.511,295.473 241.300 C 296.141 233.337,292.919 226.937,286.800 224.070 C 283.815 222.671,276.246 222.380,272.800 223.531 M340.100 223.392 C 332.555 225.519,328.561 232.044,330.571 238.961 C 331.648 242.663,333.422 244.231,340.807 248.003 C 348.348 251.856,350.361 253.461,350.678 255.876 C 351.708 263.704,341.282 266.417,332.522 260.601 C 329.502 258.596,329.581 258.524,328.994 263.800 L 328.728 266.200 331.064 267.075 C 345.164 272.357,357.250 266.967,357.250 255.396 C 357.250 250.232,354.876 247.448,347.183 243.591 C 338.126 239.051,336.375 237.300,337.028 233.434 C 337.949 227.981,345.058 226.467,352.349 230.171 C 353.530 230.772,354.635 231.114,354.803 230.931 C 355.289 230.406,356.078 225.116,355.722 224.778 C 354.107 223.245,343.850 222.335,340.100 223.392 M109.800 223.470 C 108.920 223.544,107.640 223.697,106.956 223.810 L 105.712 224.015 105.733 246.208 L 105.754 268.400 109.292 268.400 L 112.830 268.400 112.554 255.279 L 112.277 242.159 113.981 238.883 C 117.137 232.817,121.127 230.080,126.009 230.633 L 128.400 230.903 128.400 227.279 C 128.400 223.124,128.199 222.899,124.924 223.391 C 120.905 223.993,117.310 226.488,114.780 230.431 C 112.768 233.567,112.400 233.160,112.400 227.800 C 112.400 224.351,112.275 223.217,111.900 223.267 C 111.625 223.304,110.680 223.395,109.800 223.470 M141.000 223.477 C 139.900 223.549,138.596 223.700,138.102 223.812 L 137.203 224.014 137.340 241.707 C 137.459 257.049,137.566 259.635,138.147 261.173 C 141.489 270.026,153.335 271.349,161.865 263.822 C 164.112 261.838,164.701 261.632,165.061 262.700 C 167.395 269.635,176.094 271.396,177.467 265.212 C 178.084 262.435,177.983 262.317,175.261 262.625 C 173.340 262.842,172.836 262.758,171.995 262.076 L 171.000 261.269 171.150 242.236 L 171.300 223.202 168.750 223.427 C 167.348 223.550,165.795 223.733,165.300 223.833 L 164.400 224.015 164.400 240.359 L 164.400 256.704 162.618 258.163 C 156.537 263.147,149.587 264.096,146.247 260.400 C 144.014 257.928,143.964 257.385,144.298 239.448 C 144.597 223.350,144.593 223.200,143.800 223.272 C 143.360 223.312,142.100 223.404,141.000 223.477 M282.840 228.461 C 286.166 229.589,288.141 232.447,288.604 236.804 C 288.945 240.007,289.483 239.848,277.268 240.139 L 266.337 240.398 266.617 239.099 C 268.438 230.654,275.553 225.989,282.840 228.461 M79.475 229.849 C 87.730 232.796,89.338 253.728,81.816 260.332 C 77.659 263.983,71.102 264.665,65.791 262.000 L 63.000 260.600 62.894 248.266 L 62.788 235.933 64.894 233.976 C 69.781 229.435,74.541 228.088,79.475 229.849 M33.200 255.626 C 27.161 258.150,27.723 267.940,33.968 268.995 C 39.362 269.906,42.651 266.841,42.332 261.200 C 42.063 256.439,37.670 253.758,33.200 255.626 " stroke="none" fill="#2D2D87" fill-rule="evenodd"></path><path id="path1" d="M0.000 200.000 L 0.000 400.000 200.000 400.000 L 400.000 400.000 400.000 200.000 L 400.000 0.000 200.000 0.000 L 0.000 0.000 0.000 200.000 M257.057 114.306 C 257.308 114.468,259.533 120.990,262.000 128.800 C 264.467 136.610,267.805 146.960,269.418 151.800 C 273.252 163.310,279.200 182.109,279.200 182.720 C 279.200 183.071,277.657 183.200,273.455 183.200 L 267.709 183.200 267.028 179.700 C 266.277 175.838,263.732 167.290,263.097 166.495 C 262.783 166.102,259.703 166.013,249.258 166.095 L 235.823 166.200 234.170 171.000 C 233.261 173.640,232.198 177.465,231.809 179.500 L 231.101 183.200 225.350 183.200 C 222.188 183.200,219.600 183.042,219.600 182.848 C 219.600 182.654,221.392 177.569,223.583 171.548 C 225.774 165.527,229.266 155.740,231.344 149.800 C 233.422 143.860,236.281 135.850,237.698 132.000 C 239.114 128.150,241.050 122.750,242.001 120.000 C 242.951 117.250,243.902 114.775,244.113 114.500 C 244.540 113.945,256.224 113.770,257.057 114.306 M301.558 114.366 C 302.026 114.662,302.071 116.627,301.836 126.460 C 301.464 142.030,301.450 175.748,301.814 179.900 L 302.103 183.200 296.192 183.200 L 290.282 183.200 290.616 173.100 C 291.021 160.885,291.020 165.059,290.618 137.942 C 290.434 125.480,290.393 114.995,290.529 114.642 C 290.806 113.919,300.470 113.677,301.558 114.366 M200.400 128.849 L 200.400 134.000 207.613 134.000 C 215.837 134.000,215.391 133.778,214.916 137.631 L 214.600 140.200 207.541 140.309 L 200.482 140.418 200.235 146.109 C 199.683 158.838,199.764 172.129,200.400 173.364 C 201.978 176.425,206.353 177.143,211.704 175.221 C 215.067 174.013,215.245 174.180,214.660 177.996 L 214.200 180.992 210.239 182.336 C 203.699 184.555,199.254 183.925,195.466 180.243 C 191.977 176.853,191.900 176.343,191.976 157.100 L 192.042 140.400 188.901 140.400 C 185.151 140.400,184.759 140.119,185.042 137.636 C 185.485 133.758,185.234 134.000,188.808 134.000 L 192.000 134.000 192.000 130.064 L 192.000 126.129 195.700 124.527 C 200.479 122.459,200.400 122.386,200.400 128.849 M247.796 132.300 C 246.524 135.985,244.077 142.854,242.358 147.564 C 240.639 152.274,239.325 156.279,239.440 156.464 C 239.684 156.860,260.000 156.926,260.000 156.531 C 260.000 156.383,258.174 150.308,255.942 143.031 C 253.711 135.754,251.611 128.855,251.277 127.700 C 250.425 124.760,250.377 124.822,247.796 132.300 M79.200 134.422 C 83.056 135.489,82.957 135.333,82.227 139.181 C 81.320 143.963,81.582 143.828,77.320 141.721 C 70.064 138.135,62.743 140.083,62.102 145.770 C 61.708 149.270,63.269 150.793,71.546 154.986 C 82.384 160.475,85.370 164.398,84.003 171.349 C 81.762 182.740,68.111 187.460,54.430 181.575 C 52.151 180.594,52.182 180.700,52.847 176.226 C 53.450 172.172,53.753 171.999,56.803 173.970 C 66.221 180.058,76.659 177.801,75.895 169.844 C 75.624 167.032,74.014 165.710,65.568 161.372 C 55.984 156.449,54.000 154.043,54.000 147.344 C 54.000 136.430,65.371 130.599,79.200 134.422 M171.800 134.013 C 175.345 134.942,176.835 135.657,176.644 136.339 C 176.543 136.702,176.248 138.318,175.989 139.928 C 175.403 143.576,175.162 143.672,171.335 141.781 C 162.946 137.636,154.867 140.834,156.171 147.784 C 156.552 149.815,158.245 151.249,163.293 153.817 C 175.595 160.074,178.000 162.554,178.000 168.981 C 178.000 181.511,163.679 187.814,148.875 181.800 C 146.217 180.720,146.175 180.606,146.801 176.193 C 147.343 172.371,147.811 171.918,149.729 173.357 C 157.275 179.018,167.002 178.802,169.460 172.919 C 171.339 168.420,169.504 166.362,158.857 161.028 C 150.160 156.671,147.875 153.801,147.902 147.274 C 147.945 136.888,159.113 130.691,171.800 134.013 M344.427 134.235 C 353.371 136.851,353.915 138.499,354.149 163.700 L 354.330 183.200 349.915 183.200 L 345.500 183.200 345.650 164.700 C 345.792 147.131,345.762 146.130,345.041 144.800 C 342.001 139.195,333.783 139.664,326.200 145.875 L 323.800 147.841 323.856 165.520 L 323.911 183.200 319.633 183.200 L 315.355 183.200 315.332 158.990 C 315.320 145.674,315.426 134.708,315.567 134.620 C 315.709 134.533,317.574 134.333,319.712 134.176 L 323.600 133.890 323.600 137.345 C 323.600 141.284,323.558 141.239,325.599 139.500 C 331.593 134.394,338.432 132.482,344.427 134.235 M104.694 152.724 L 104.600 171.448 105.698 173.113 C 108.660 177.603,116.183 177.295,122.529 172.424 L 125.000 170.528 125.200 152.564 L 125.400 134.600 127.600 134.340 C 128.810 134.196,130.679 134.061,131.753 134.040 L 133.706 134.000 133.553 154.632 C 133.375 178.626,132.998 176.649,137.676 176.235 C 140.867 175.953,140.965 176.056,140.593 179.264 L 140.312 181.685 138.118 182.689 C 133.048 185.010,128.505 183.243,126.579 178.201 L 125.910 176.449 123.055 178.581 C 114.213 185.183,105.907 185.571,99.994 179.658 C 96.298 175.962,96.374 176.475,96.176 153.836 L 96.007 134.442 98.104 134.295 C 99.257 134.214,101.232 134.115,102.494 134.074 L 104.787 134.000 104.694 152.724 M63.491 214.262 C 63.364 222.478,63.327 229.200,63.410 229.200 C 63.494 229.200,64.731 228.383,66.160 227.384 C 79.093 218.343,90.748 223.051,93.430 238.400 C 97.104 259.429,83.238 274.029,65.071 268.260 L 62.123 267.324 59.962 268.443 C 55.349 270.831,55.244 270.623,55.604 259.800 C 55.764 254.960,55.801 239.456,55.686 225.347 L 55.476 199.694 59.238 199.330 C 61.307 199.130,63.163 199.046,63.362 199.145 C 63.574 199.250,63.627 205.499,63.491 214.262 M316.564 233.898 L 316.411 268.600 312.552 268.600 L 308.693 268.600 308.847 261.600 C 308.931 257.750,308.929 242.246,308.842 227.147 L 308.684 199.693 312.442 199.330 C 314.509 199.129,316.316 199.017,316.458 199.081 C 316.600 199.144,316.647 214.811,316.564 233.898 M283.400 222.640 C 288.908 223.541,293.344 227.573,295.064 233.243 C 295.846 235.823,295.964 243.373,295.242 244.721 L 294.772 245.600 280.339 245.600 L 265.907 245.600 266.195 248.293 C 267.596 261.377,277.701 266.367,290.281 260.188 C 294.557 258.087,294.689 258.172,294.000 262.597 L 293.468 266.021 291.634 266.843 C 273.745 274.860,258.656 265.428,258.613 246.200 C 258.576 229.544,268.418 220.189,283.400 222.640 M206.426 222.970 C 207.870 223.277,209.692 223.795,210.475 224.122 L 211.899 224.717 211.369 227.765 C 210.577 232.318,210.796 232.214,206.469 230.104 C 199.535 226.723,192.800 228.938,192.800 234.600 C 192.800 237.640,193.845 238.600,201.356 242.462 C 210.995 247.419,212.987 249.672,212.972 255.600 C 212.942 267.399,199.898 272.922,185.686 267.154 C 183.530 266.279,183.518 266.263,183.758 264.836 C 183.891 264.046,184.114 262.457,184.254 261.304 C 184.615 258.341,185.010 258.192,187.699 259.999 C 195.772 265.426,204.742 264.131,205.498 257.430 C 205.886 253.982,204.144 252.385,195.544 248.306 C 187.880 244.671,185.212 241.436,185.204 235.771 C 185.190 225.931,194.344 220.409,206.426 222.970 M245.900 223.588 C 249.131 224.617,249.003 224.345,248.267 228.596 C 247.671 232.039,247.416 232.124,243.535 230.161 C 236.496 226.602,229.800 228.769,229.800 234.607 C 229.800 237.703,231.075 238.853,238.706 242.646 C 248.115 247.323,250.258 249.926,249.922 256.272 C 249.341 267.227,237.071 272.605,223.976 267.642 C 220.284 266.243,220.334 266.329,220.962 262.453 C 221.623 258.372,221.968 258.100,224.357 259.775 C 232.011 265.139,240.769 264.465,242.310 258.394 C 243.288 254.541,241.653 252.780,233.335 248.728 C 224.812 244.576,222.390 241.879,222.081 236.200 C 221.510 225.682,233.135 219.526,245.900 223.588 M353.700 223.578 C 356.748 224.542,356.697 224.427,355.954 228.698 C 355.390 231.932,355.082 232.032,351.367 230.197 C 344.946 227.024,338.913 228.322,337.612 233.157 C 336.610 236.877,338.105 238.482,346.484 242.674 C 355.550 247.210,357.804 249.794,357.759 255.600 C 357.667 267.392,343.981 273.112,330.317 267.068 L 328.122 266.098 328.651 262.773 C 329.368 258.262,329.640 258.065,332.495 259.991 C 339.540 264.743,347.124 264.516,349.562 259.479 C 351.732 254.997,350.504 253.455,340.933 248.641 C 331.870 244.082,329.054 240.508,329.764 234.466 C 330.903 224.776,341.809 219.814,353.700 223.578 M113.000 227.300 C 113.000 231.668,113.195 232.304,114.048 230.711 C 116.412 226.293,123.424 222.228,127.393 222.972 L 128.800 223.236 128.800 227.218 C 128.800 230.114,128.664 231.212,128.300 231.243 C 128.025 231.266,126.493 231.250,124.896 231.207 C 120.365 231.085,118.205 232.622,114.762 238.418 L 113.126 241.171 113.063 246.086 C 113.028 248.789,113.072 254.960,113.159 259.800 L 113.319 268.600 109.359 268.713 L 105.400 268.826 105.400 246.234 L 105.400 223.642 108.000 223.391 C 109.430 223.253,110.780 223.074,111.000 222.994 C 112.774 222.347,113.000 222.834,113.000 227.300 M144.730 240.100 C 144.603 256.953,144.621 257.436,145.422 258.799 C 148.205 263.537,156.260 263.068,162.300 257.816 L 164.000 256.338 164.000 240.006 L 164.000 223.675 166.100 223.417 C 167.255 223.274,168.988 223.054,169.951 222.926 L 171.702 222.694 171.551 241.977 C 171.376 264.329,171.016 262.523,175.599 262.317 L 178.200 262.200 178.109 263.800 C 177.953 266.552,177.652 267.157,176.030 267.985 C 171.397 270.348,167.258 268.946,165.211 264.318 L 164.383 262.447 161.483 264.528 C 154.955 269.211,149.494 270.275,144.266 267.882 C 137.075 264.589,136.800 263.599,136.800 240.959 L 136.800 223.664 139.500 223.402 C 140.985 223.258,142.380 223.078,142.600 223.002 C 142.820 222.925,143.419 222.849,143.930 222.832 L 144.861 222.800 144.730 240.100 M275.917 228.561 C 272.236 229.552,268.881 232.940,267.411 237.150 C 266.304 240.322,265.574 240.114,277.178 239.936 C 288.606 239.760,288.195 239.853,288.105 237.482 C 287.839 230.476,282.721 226.729,275.917 228.561 M73.289 229.626 C 70.956 230.084,68.082 231.713,65.422 234.084 L 63.200 236.064 63.200 247.832 C 63.200 261.147,63.040 260.474,66.561 261.983 C 79.263 267.428,88.650 256.480,85.569 239.814 C 84.173 232.266,79.517 228.402,73.289 229.626 M38.200 255.241 C 44.712 257.016,44.411 267.018,37.780 269.207 C 33.203 270.717,28.802 267.424,28.801 262.487 C 28.799 257.068,33.005 253.825,38.200 255.241 " stroke="none" fill="#fff" fill-rule="evenodd"></path><path id="path2" d="M192.171 126.532 C 192.059 126.824,192.021 128.669,192.087 130.632 L 192.207 134.200 192.403 130.099 C 192.598 126.032,192.564 125.507,192.171 126.532 M104.531 139.400 C 104.533 140.940,104.605 141.521,104.692 140.691 C 104.779 139.861,104.777 138.601,104.689 137.891 C 104.600 137.181,104.529 137.860,104.531 139.400 M336.905 140.687 C 337.514 140.779,338.414 140.777,338.905 140.682 C 339.397 140.587,338.900 140.511,337.800 140.514 C 336.700 140.517,336.297 140.595,336.905 140.687 M192.148 146.000 C 192.148 148.310,192.214 149.255,192.295 148.100 C 192.376 146.945,192.376 145.055,192.295 143.900 C 192.214 142.745,192.148 143.690,192.148 146.000 M301.344 146.800 C 301.344 148.890,301.412 149.745,301.494 148.700 C 301.576 147.655,301.576 145.945,301.494 144.900 C 301.412 143.855,301.344 144.710,301.344 146.800 M353.764 155.000 C 353.763 158.740,353.823 160.324,353.897 158.520 C 353.971 156.715,353.972 153.655,353.898 151.720 C 353.825 149.784,353.764 151.260,353.764 155.000 M315.740 156.400 C 315.740 158.270,315.809 159.035,315.893 158.100 C 315.977 157.165,315.977 155.635,315.893 154.700 C 315.809 153.765,315.740 154.530,315.740 156.400 M104.131 160.600 C 104.133 162.140,104.205 162.721,104.292 161.891 C 104.379 161.061,104.377 159.801,104.289 159.091 C 104.200 158.381,104.129 159.060,104.131 160.600 M353.754 167.200 C 353.754 169.950,353.818 171.075,353.896 169.700 C 353.974 168.325,353.974 166.075,353.896 164.700 C 353.818 163.325,353.754 164.450,353.754 167.200 M192.124 165.800 C 192.126 167.120,192.201 167.612,192.290 166.893 C 192.379 166.174,192.377 165.094,192.286 164.493 C 192.195 163.892,192.122 164.480,192.124 165.800 M315.720 166.000 C 315.720 167.210,315.795 167.705,315.887 167.100 C 315.978 166.495,315.978 165.505,315.887 164.900 C 315.795 164.295,315.720 164.790,315.720 166.000 M240.100 165.887 C 240.705 165.978,241.695 165.978,242.300 165.887 C 242.905 165.795,242.410 165.720,241.200 165.720 C 239.990 165.720,239.495 165.795,240.100 165.887 M255.900 165.889 C 256.615 165.978,257.785 165.978,258.500 165.889 C 259.215 165.801,258.630 165.728,257.200 165.728 C 255.770 165.728,255.185 165.801,255.900 165.889 M177.714 169.000 C 177.717 170.100,177.795 170.503,177.887 169.895 C 177.979 169.286,177.977 168.386,177.882 167.895 C 177.787 167.403,177.711 167.900,177.714 169.000 M323.331 169.800 C 323.333 171.340,323.405 171.921,323.492 171.091 C 323.579 170.261,323.577 169.001,323.489 168.291 C 323.400 167.581,323.329 168.260,323.331 169.800 M301.320 169.600 C 301.320 170.810,301.395 171.305,301.487 170.700 C 301.578 170.095,301.578 169.105,301.487 168.500 C 301.395 167.895,301.320 168.390,301.320 169.600 M66.700 177.882 C 67.195 177.978,68.005 177.978,68.500 177.882 C 68.995 177.787,68.590 177.709,67.600 177.709 C 66.610 177.709,66.205 177.787,66.700 177.882 M160.505 177.887 C 161.114 177.979,162.014 177.977,162.505 177.882 C 162.997 177.787,162.500 177.711,161.400 177.714 C 160.300 177.717,159.897 177.795,160.505 177.887 M79.375 179.300 L 78.200 180.600 79.500 179.425 C 80.215 178.779,80.800 178.194,80.800 178.125 C 80.800 177.816,80.470 178.088,79.375 179.300 M315.301 181.400 C 315.305 182.280,315.387 182.593,315.483 182.095 C 315.579 181.598,315.575 180.878,315.475 180.495 C 315.375 180.113,315.296 180.520,315.301 181.400 M63.357 205.200 C 63.357 208.170,63.420 209.385,63.497 207.900 C 63.574 206.415,63.574 203.985,63.497 202.500 C 63.420 201.015,63.357 202.230,63.357 205.200 M308.955 217.800 C 308.956 220.660,309.020 221.778,309.097 220.283 C 309.174 218.789,309.174 216.449,309.096 215.083 C 309.018 213.718,308.955 214.940,308.955 217.800 M55.757 222.400 C 55.757 225.370,55.820 226.585,55.897 225.100 C 55.974 223.615,55.974 221.185,55.897 219.700 C 55.820 218.215,55.757 219.430,55.757 222.400 M199.900 222.682 C 200.395 222.778,201.205 222.778,201.700 222.682 C 202.195 222.587,201.790 222.509,200.800 222.509 C 199.810 222.509,199.405 222.587,199.900 222.682 M237.105 222.683 C 237.602 222.779,238.322 222.775,238.705 222.675 C 239.087 222.575,238.680 222.496,237.800 222.501 C 236.920 222.505,236.607 222.587,237.105 222.683 M344.705 222.683 C 345.202 222.779,345.922 222.775,346.305 222.675 C 346.687 222.575,346.280 222.496,345.400 222.501 C 344.520 222.505,344.207 222.587,344.705 222.683 M128.501 229.400 C 128.505 230.280,128.587 230.593,128.683 230.095 C 128.779 229.598,128.775 228.878,128.675 228.495 C 128.575 228.113,128.496 228.520,128.501 229.400 M136.940 231.200 C 136.940 233.070,137.009 233.835,137.093 232.900 C 137.177 231.965,137.177 230.435,137.093 229.500 C 137.009 228.565,136.940 229.330,136.940 231.200 M144.531 231.800 C 144.533 233.340,144.605 233.921,144.692 233.091 C 144.779 232.261,144.777 231.001,144.689 230.291 C 144.600 229.581,144.529 230.260,144.531 231.800 M171.344 234.400 C 171.344 236.490,171.412 237.345,171.494 236.300 C 171.576 235.255,171.576 233.545,171.494 232.500 C 171.412 231.455,171.344 232.310,171.344 234.400 M268.691 240.289 C 269.401 240.377,270.661 240.379,271.491 240.292 C 272.321 240.205,271.740 240.133,270.200 240.131 C 268.660 240.129,267.981 240.200,268.691 240.289 M258.501 246.200 C 258.505 247.080,258.587 247.393,258.683 246.895 C 258.779 246.398,258.775 245.678,258.675 245.295 C 258.575 244.913,258.496 245.320,258.501 246.200 M112.531 247.800 C 112.533 249.340,112.605 249.921,112.692 249.091 C 112.779 248.261,112.777 247.001,112.689 246.291 C 112.600 245.581,112.529 246.260,112.531 247.800 M144.124 253.000 C 144.126 254.320,144.201 254.812,144.290 254.093 C 144.379 253.374,144.377 252.294,144.286 251.693 C 144.195 251.092,144.122 251.680,144.124 253.000 M205.693 256.800 C 205.693 257.570,205.775 257.885,205.876 257.500 C 205.976 257.115,205.976 256.485,205.876 256.100 C 205.775 255.715,205.693 256.030,205.693 256.800 M55.709 258.400 C 55.709 259.390,55.787 259.795,55.882 259.300 C 55.978 258.805,55.978 257.995,55.882 257.500 C 55.787 257.005,55.709 257.410,55.709 258.400 M308.909 259.600 C 308.909 260.590,308.987 260.995,309.082 260.500 C 309.178 260.005,309.178 259.195,309.082 258.700 C 308.987 258.205,308.909 258.610,308.909 259.600 M173.300 262.676 C 173.685 262.776,174.315 262.776,174.700 262.676 C 175.085 262.575,174.770 262.493,174.000 262.493 C 173.230 262.493,172.915 262.575,173.300 262.676 M112.924 265.000 C 112.926 266.320,113.001 266.812,113.090 266.093 C 113.179 265.374,113.177 264.294,113.086 263.693 C 112.995 263.092,112.922 263.680,112.924 265.000 M279.500 263.082 C 279.995 263.178,280.805 263.178,281.300 263.082 C 281.795 262.987,281.390 262.909,280.400 262.909 C 279.410 262.909,279.005 262.987,279.500 263.082 " stroke="none" fill="#948cc3" fill-rule="evenodd"></path><path id="path3" d="M301.720 117.200 C 301.720 118.410,301.795 118.905,301.887 118.300 C 301.978 117.695,301.978 116.705,301.887 116.100 C 301.795 115.495,301.720 115.990,301.720 117.200 M290.540 124.400 C 290.540 126.270,290.609 127.035,290.693 126.100 C 290.777 125.165,290.777 123.635,290.693 122.700 C 290.609 121.765,290.540 122.530,290.540 124.400 M200.128 127.200 C 200.128 128.630,200.201 129.215,200.289 128.500 C 200.378 127.785,200.378 126.615,200.289 125.900 C 200.201 125.185,200.128 125.770,200.128 127.200 M104.501 135.400 C 104.505 136.280,104.587 136.593,104.683 136.095 C 104.779 135.598,104.775 134.878,104.675 134.495 C 104.575 134.113,104.496 134.520,104.501 135.400 M125.784 152.400 C 125.784 162.190,125.836 166.195,125.900 161.300 C 125.963 156.405,125.963 148.395,125.900 143.500 C 125.836 138.605,125.784 142.610,125.784 152.400 M301.346 139.400 C 301.347 141.600,301.414 142.449,301.495 141.287 C 301.576 140.124,301.576 138.324,301.493 137.287 C 301.411 136.249,301.345 137.200,301.346 139.400 M151.775 138.100 L 150.600 139.400 151.900 138.225 C 152.615 137.579,153.200 136.994,153.200 136.925 C 153.200 136.616,152.870 136.888,151.775 138.100 M68.900 139.487 C 69.505 139.578,70.495 139.578,71.100 139.487 C 71.705 139.395,71.210 139.320,70.000 139.320 C 68.790 139.320,68.295 139.395,68.900 139.487 M162.900 139.487 C 163.505 139.578,164.495 139.578,165.100 139.487 C 165.705 139.395,165.210 139.320,164.000 139.320 C 162.790 139.320,162.295 139.395,162.900 139.487 M187.312 139.895 C 188.364 139.977,189.984 139.976,190.912 139.892 C 191.840 139.808,190.980 139.741,189.000 139.742 C 187.020 139.743,186.260 139.812,187.312 139.895 M203.500 139.898 C 205.535 139.971,208.865 139.971,210.900 139.898 C 212.935 139.825,211.270 139.766,207.200 139.766 C 203.130 139.766,201.465 139.825,203.500 139.898 M133.344 145.600 C 133.344 147.690,133.412 148.545,133.494 147.500 C 133.576 146.455,133.576 144.745,133.494 143.700 C 133.412 142.655,133.344 143.510,133.344 145.600 M96.581 158.400 C 96.581 166.430,96.634 169.715,96.699 165.700 C 96.765 161.685,96.765 155.115,96.699 151.100 C 96.634 147.085,96.581 150.370,96.581 158.400 M315.742 149.800 C 315.741 151.780,315.808 152.640,315.892 151.712 C 315.976 150.784,315.977 149.164,315.895 148.112 C 315.812 147.060,315.743 147.820,315.742 149.800 M290.940 150.800 C 290.940 152.670,291.009 153.435,291.093 152.500 C 291.177 151.565,291.177 150.035,291.093 149.100 C 291.009 148.165,290.940 148.930,290.940 150.800 M346.128 150.400 C 346.128 151.830,346.201 152.415,346.289 151.700 C 346.378 150.985,346.378 149.815,346.289 149.100 C 346.201 148.385,346.128 148.970,346.128 150.400 M192.561 157.200 C 192.561 160.610,192.622 162.005,192.697 160.300 C 192.772 158.595,192.772 155.805,192.697 154.100 C 192.622 152.395,192.561 153.790,192.561 157.200 M199.734 154.400 C 199.734 156.050,199.805 156.725,199.891 155.900 C 199.978 155.075,199.978 153.725,199.891 152.900 C 199.805 152.075,199.734 152.750,199.734 154.400 M104.134 155.200 C 104.134 156.850,104.205 157.525,104.291 156.700 C 104.378 155.875,104.378 154.525,104.291 153.700 C 104.205 152.875,104.134 153.550,104.134 155.200 M57.600 156.200 C 58.346 156.970,59.047 157.600,59.157 157.600 C 59.267 157.600,58.746 156.970,58.000 156.200 C 57.254 155.430,56.553 154.800,56.443 154.800 C 56.333 154.800,56.854 155.430,57.600 156.200 M240.700 157.089 C 241.415 157.178,242.585 157.178,243.300 157.089 C 244.015 157.001,243.430 156.928,242.000 156.928 C 240.570 156.928,239.985 157.001,240.700 157.089 M255.491 157.089 C 256.201 157.177,257.461 157.179,258.291 157.092 C 259.121 157.005,258.540 156.933,257.000 156.931 C 255.460 156.929,254.781 157.000,255.491 157.089 M173.200 159.725 C 173.200 159.794,173.785 160.379,174.500 161.025 L 175.800 162.200 174.625 160.900 C 173.530 159.688,173.200 159.416,173.200 159.725 M236.700 165.882 C 237.195 165.978,238.005 165.978,238.500 165.882 C 238.995 165.787,238.590 165.709,237.600 165.709 C 236.610 165.709,236.205 165.787,236.700 165.882 M260.000 165.823 C 261.486 166.147,263.526 166.203,263.348 165.916 C 263.241 165.742,262.308 165.621,261.276 165.646 C 260.244 165.672,259.670 165.752,260.000 165.823 M290.893 167.600 C 290.893 168.370,290.975 168.685,291.076 168.300 C 291.176 167.915,291.176 167.285,291.076 166.900 C 290.975 166.515,290.893 166.830,290.893 167.600 M83.701 169.000 C 83.705 169.880,83.787 170.193,83.883 169.695 C 83.979 169.198,83.975 168.478,83.875 168.095 C 83.775 167.713,83.696 168.120,83.701 169.000 M192.114 169.800 C 192.117 170.900,192.195 171.303,192.287 170.695 C 192.379 170.086,192.377 169.186,192.282 168.695 C 192.187 168.203,192.111 168.700,192.114 169.800 M315.720 170.000 C 315.720 171.210,315.795 171.705,315.887 171.100 C 315.978 170.495,315.978 169.505,315.887 168.900 C 315.795 168.295,315.720 168.790,315.720 170.000 M301.320 173.600 C 301.320 174.810,301.395 175.305,301.487 174.700 C 301.578 174.095,301.578 173.105,301.487 172.500 C 301.395 171.895,301.320 172.390,301.320 173.600 M345.740 175.200 C 345.740 177.070,345.809 177.835,345.893 176.900 C 345.977 175.965,345.977 174.435,345.893 173.500 C 345.809 172.565,345.740 173.330,345.740 175.200 M353.755 177.000 C 353.756 179.860,353.820 180.978,353.897 179.483 C 353.974 177.989,353.974 175.649,353.896 174.283 C 353.818 172.918,353.755 174.140,353.755 177.000 M323.331 175.000 C 323.333 176.540,323.405 177.121,323.492 176.291 C 323.579 175.461,323.577 174.201,323.489 173.491 C 323.400 172.781,323.329 173.460,323.331 175.000 M111.100 176.689 C 111.815 176.778,112.985 176.778,113.700 176.689 C 114.415 176.601,113.830 176.528,112.400 176.528 C 110.970 176.528,110.385 176.601,111.100 176.689 M205.100 176.689 C 205.815 176.778,206.985 176.778,207.700 176.689 C 208.415 176.601,207.830 176.528,206.400 176.528 C 204.970 176.528,204.385 176.601,205.100 176.689 M290.493 178.800 C 290.493 179.570,290.575 179.885,290.676 179.500 C 290.776 179.115,290.776 178.485,290.676 178.100 C 290.575 177.715,290.493 178.030,290.493 178.800 M138.000 182.200 C 137.450 182.514,137.180 182.772,137.400 182.772 C 137.620 182.772,138.250 182.514,138.800 182.200 C 139.350 181.886,139.620 181.628,139.400 181.628 C 139.180 181.628,138.550 181.886,138.000 182.200 M317.500 183.095 C 318.655 183.176,320.545 183.176,321.700 183.095 C 322.855 183.014,321.910 182.948,319.600 182.948 C 317.290 182.948,316.345 183.014,317.500 183.095 M347.715 183.096 C 348.988 183.176,350.968 183.175,352.115 183.094 C 353.262 183.014,352.220 182.949,349.800 182.950 C 347.380 182.951,346.442 183.016,347.715 183.096 M108.500 183.476 C 108.885 183.576,109.515 183.576,109.900 183.476 C 110.285 183.375,109.970 183.293,109.200 183.293 C 108.430 183.293,108.115 183.375,108.500 183.476 M65.507 183.890 C 66.226 183.979,67.306 183.977,67.907 183.886 C 68.508 183.795,67.920 183.722,66.600 183.724 C 65.280 183.726,64.788 183.801,65.507 183.890 M159.100 183.889 C 159.815 183.978,160.985 183.978,161.700 183.889 C 162.415 183.801,161.830 183.728,160.400 183.728 C 158.970 183.728,158.385 183.801,159.100 183.889 M316.520 201.200 C 316.520 202.410,316.595 202.905,316.687 202.300 C 316.778 201.695,316.778 200.705,316.687 200.100 C 316.595 199.495,316.520 199.990,316.520 201.200 M55.779 200.110 C 55.671 200.391,55.636 204.396,55.700 209.010 L 55.817 217.400 55.909 208.733 C 55.977 202.245,56.126 200.016,56.500 199.865 C 56.892 199.707,56.889 199.656,56.487 199.632 C 56.206 199.614,55.887 199.830,55.779 200.110 M308.977 200.117 C 308.868 200.401,308.833 203.416,308.900 206.817 L 309.022 213.000 309.111 206.533 C 309.176 201.803,309.334 200.012,309.700 199.865 C 310.092 199.707,310.089 199.656,309.687 199.632 C 309.406 199.614,309.086 199.833,308.977 200.117 M62.973 219.800 C 62.973 225.080,63.030 227.185,63.099 224.477 C 63.168 221.769,63.168 217.449,63.099 214.877 C 63.029 212.305,62.972 214.520,62.973 219.800 M316.179 225.000 C 316.179 232.260,316.233 235.286,316.299 231.725 C 316.365 228.164,316.366 222.224,316.299 218.525 C 316.233 214.826,316.179 217.740,316.179 225.000 M278.300 222.682 C 278.795 222.778,279.605 222.778,280.100 222.682 C 280.595 222.587,280.190 222.509,279.200 222.509 C 278.210 222.509,277.805 222.587,278.300 222.682 M112.553 227.800 C 112.553 230.440,112.618 231.468,112.697 230.084 C 112.775 228.701,112.774 226.541,112.695 225.284 C 112.616 224.028,112.552 225.160,112.553 227.800 M171.346 227.000 C 171.347 229.200,171.414 230.049,171.495 228.887 C 171.576 227.724,171.576 225.924,171.493 224.887 C 171.411 223.849,171.345 224.800,171.346 227.000 M309.384 240.400 C 309.384 249.970,309.436 253.885,309.500 249.100 C 309.563 244.315,309.563 236.485,309.500 231.700 C 309.436 226.915,309.384 230.830,309.384 240.400 M136.962 224.154 C 136.845 224.459,136.819 225.494,136.905 226.454 L 137.060 228.200 137.130 226.133 C 137.171 224.912,137.405 223.984,137.700 223.865 C 138.092 223.707,138.089 223.656,137.687 223.632 C 137.406 223.614,137.079 223.849,136.962 224.154 M144.534 226.400 C 144.534 228.050,144.605 228.725,144.691 227.900 C 144.778 227.075,144.778 225.725,144.691 224.900 C 144.605 224.075,144.534 224.750,144.534 226.400 M164.267 223.867 C 164.120 224.013,164.000 231.424,164.000 240.335 C 164.000 255.182,163.941 256.607,163.300 257.369 C 162.601 258.199,162.601 258.199,163.500 257.438 L 164.400 256.676 164.400 240.371 C 164.400 227.702,164.511 224.022,164.900 223.865 C 165.179 223.752,165.209 223.649,164.967 223.632 C 164.728 223.614,164.413 223.720,164.267 223.867 M128.514 226.200 C 128.517 227.300,128.595 227.703,128.687 227.095 C 128.779 226.486,128.777 225.586,128.682 225.095 C 128.587 224.603,128.511 225.100,128.514 226.200 M333.375 226.900 L 332.200 228.200 333.500 227.025 C 334.215 226.379,334.800 225.794,334.800 225.725 C 334.800 225.416,334.470 225.688,333.375 226.900 M86.800 226.125 C 86.800 226.194,87.385 226.779,88.100 227.425 L 89.400 228.600 88.225 227.300 C 87.130 226.088,86.800 225.816,86.800 226.125 M56.181 242.000 C 56.181 250.030,56.234 253.315,56.299 249.300 C 56.365 245.285,56.365 238.715,56.299 234.700 C 56.234 230.685,56.181 233.970,56.181 242.000 M123.505 230.683 C 124.002 230.779,124.722 230.775,125.105 230.675 C 125.487 230.575,125.080 230.496,124.200 230.501 C 123.320 230.505,123.007 230.587,123.505 230.683 M62.909 237.600 C 62.909 238.590,62.987 238.995,63.082 238.500 C 63.178 238.005,63.178 237.195,63.082 236.700 C 62.987 236.205,62.909 236.610,62.909 237.600 M105.740 243.200 C 105.740 245.070,105.809 245.835,105.893 244.900 C 105.977 243.965,105.977 242.435,105.893 241.500 C 105.809 240.565,105.740 241.330,105.740 243.200 M137.342 244.200 C 137.341 246.180,137.408 247.040,137.492 246.112 C 137.576 245.184,137.577 243.564,137.495 242.512 C 137.412 241.460,137.343 242.220,137.342 244.200 M198.400 241.398 C 198.400 241.667,202.449 243.684,202.629 243.505 C 202.711 243.423,201.793 242.873,200.589 242.282 C 199.385 241.692,198.400 241.294,198.400 241.398 M112.514 243.400 C 112.517 244.500,112.595 244.903,112.687 244.295 C 112.779 243.686,112.777 242.786,112.682 242.295 C 112.587 241.803,112.511 242.300,112.514 243.400 M258.901 243.000 C 258.905 243.880,258.987 244.193,259.083 243.695 C 259.179 243.198,259.175 242.478,259.075 242.095 C 258.975 241.713,258.896 242.120,258.901 243.000 M224.400 242.525 C 224.400 242.594,224.985 243.179,225.700 243.825 L 227.000 245.000 225.825 243.700 C 224.730 242.488,224.400 242.216,224.400 242.525 M86.514 245.800 C 86.517 246.900,86.595 247.303,86.687 246.695 C 86.779 246.086,86.777 245.186,86.682 244.695 C 86.587 244.203,86.511 244.700,86.514 245.800 M144.134 248.000 C 144.134 249.650,144.205 250.325,144.291 249.500 C 144.378 248.675,144.378 247.325,144.291 246.500 C 144.205 245.675,144.134 246.350,144.134 248.000 M273.674 245.499 C 277.345 245.565,283.465 245.565,287.274 245.499 C 291.083 245.434,288.080 245.380,280.600 245.380 C 273.120 245.379,270.003 245.433,273.674 245.499 M315.709 248.000 C 315.709 248.990,315.787 249.395,315.882 248.900 C 315.978 248.405,315.978 247.595,315.882 247.100 C 315.787 246.605,315.709 247.010,315.709 248.000 M354.000 247.800 C 354.746 248.570,355.447 249.200,355.557 249.200 C 355.667 249.200,355.146 248.570,354.400 247.800 C 353.654 247.030,352.953 246.400,352.843 246.400 C 352.733 246.400,353.254 247.030,354.000 247.800 M232.833 248.152 C 233.241 248.524,237.200 250.393,237.200 250.213 C 237.200 249.988,233.380 248.000,232.947 248.000 C 232.793 248.000,232.742 248.068,232.833 248.152 M258.901 249.400 C 258.905 250.280,258.987 250.593,259.083 250.095 C 259.179 249.598,259.175 248.878,259.075 248.495 C 258.975 248.113,258.896 248.520,258.901 249.400 M112.548 254.400 C 112.548 256.710,112.614 257.655,112.695 256.500 C 112.776 255.345,112.776 253.455,112.695 252.300 C 112.614 251.145,112.548 252.090,112.548 254.400 M105.714 253.000 C 105.717 254.100,105.795 254.503,105.887 253.895 C 105.979 253.286,105.977 252.386,105.882 251.895 C 105.787 251.403,105.711 251.900,105.714 253.000 M62.885 255.851 C 62.812 259.678,62.898 260.379,63.500 260.851 C 64.116 261.334,64.142 261.325,63.714 260.776 C 63.422 260.401,63.177 258.407,63.099 255.776 L 62.970 251.400 62.885 255.851 M349.029 253.238 C 349.673 254.029,350.281 254.608,350.379 254.525 C 350.478 254.442,349.951 253.795,349.209 253.087 L 347.858 251.800 349.029 253.238 M170.946 256.600 C 170.947 258.800,171.014 259.649,171.095 258.487 C 171.176 257.324,171.176 255.524,171.093 254.487 C 171.011 253.449,170.945 254.400,170.946 256.600 M357.293 254.000 C 357.293 254.770,357.375 255.085,357.476 254.700 C 357.576 254.315,357.576 253.685,357.476 253.300 C 357.375 252.915,357.293 253.230,357.293 254.000 M249.714 255.400 C 249.717 256.500,249.795 256.903,249.887 256.295 C 249.979 255.686,249.977 254.786,249.882 254.295 C 249.787 253.803,249.711 254.300,249.714 255.400 M316.162 260.200 C 316.162 263.720,316.224 265.106,316.298 263.281 C 316.372 261.456,316.372 258.576,316.297 256.881 C 316.222 255.186,316.161 256.680,316.162 260.200 M242.893 256.800 C 242.893 257.570,242.975 257.885,243.076 257.500 C 243.176 257.115,243.176 256.485,243.076 256.100 C 242.975 255.715,242.893 256.030,242.893 256.800 M357.293 256.800 C 357.293 257.570,357.375 257.885,357.476 257.500 C 357.576 257.115,357.576 256.485,357.476 256.100 C 357.375 255.715,357.293 256.030,357.293 256.800 M55.742 263.400 C 55.741 265.380,55.808 266.240,55.892 265.312 C 55.976 264.384,55.977 262.764,55.895 261.712 C 55.812 260.660,55.743 261.420,55.742 263.400 M42.501 261.800 C 42.505 262.680,42.587 262.993,42.683 262.495 C 42.779 261.998,42.775 261.278,42.675 260.895 C 42.575 260.513,42.496 260.920,42.501 261.800 M308.944 264.800 C 308.944 266.890,309.012 267.745,309.094 266.700 C 309.176 265.655,309.176 263.945,309.094 262.900 C 309.012 261.855,308.944 262.710,308.944 264.800 M162.782 263.087 L 161.800 264.200 162.826 263.300 C 163.938 262.324,164.617 262.166,164.937 262.810 C 165.049 263.036,165.094 262.990,165.037 262.710 C 164.849 261.779,163.778 261.958,162.782 263.087 M151.105 262.683 C 151.602 262.779,152.322 262.775,152.705 262.675 C 153.087 262.575,152.680 262.496,151.800 262.501 C 150.920 262.505,150.607 262.587,151.105 262.683 M341.700 263.876 C 342.085 263.976,342.715 263.976,343.100 263.876 C 343.485 263.775,343.170 263.693,342.400 263.693 C 341.630 263.693,341.315 263.775,341.700 263.876 M353.375 264.900 L 352.200 266.200 353.500 265.025 C 354.215 264.379,354.800 263.794,354.800 263.725 C 354.800 263.416,354.470 263.688,353.375 264.900 " stroke="none" fill="#9c94ca" fill-rule="evenodd"></path><path id="path4" d="M247.519 114.298 C 249.344 114.372,252.224 114.372,253.919 114.297 C 255.614 114.222,254.120 114.161,250.600 114.162 C 247.080 114.162,245.694 114.224,247.519 114.298 M293.300 114.297 C 294.785 114.374,297.215 114.374,298.700 114.297 C 300.185 114.220,298.970 114.157,296.000 114.157 C 293.030 114.157,291.815 114.220,293.300 114.297 M301.746 124.200 C 301.747 126.400,301.814 127.249,301.895 126.087 C 301.976 124.924,301.976 123.124,301.893 122.087 C 301.811 121.049,301.745 122.000,301.746 124.200 M290.563 134.400 C 290.563 138.030,290.623 139.515,290.698 137.700 C 290.772 135.885,290.772 132.915,290.698 131.100 C 290.623 129.285,290.563 130.770,290.563 134.400 M200.162 132.000 L 200.200 134.200 207.663 134.400 C 211.767 134.510,215.041 134.465,214.939 134.300 C 214.837 134.135,211.533 134.000,207.597 134.000 L 200.442 134.000 200.283 131.900 L 200.124 129.800 200.162 132.000 M69.491 133.489 C 70.201 133.577,71.461 133.579,72.291 133.492 C 73.121 133.405,72.540 133.333,71.000 133.331 C 69.460 133.329,68.781 133.400,69.491 133.489 M163.300 133.491 C 164.125 133.578,165.475 133.578,166.300 133.491 C 167.125 133.405,166.450 133.334,164.800 133.334 C 163.150 133.334,162.475 133.405,163.300 133.491 M187.100 134.293 C 188.035 134.377,189.565 134.377,190.500 134.293 C 191.435 134.209,190.670 134.140,188.800 134.140 C 186.930 134.140,186.165 134.209,187.100 134.293 M323.264 137.276 C 323.229 139.188,323.335 140.837,323.500 140.939 C 323.665 141.042,323.750 140.018,323.689 138.663 C 323.489 134.252,323.329 133.730,323.264 137.276 M125.383 134.900 C 125.278 135.175,125.238 143.230,125.296 152.800 L 125.400 170.200 125.600 152.300 C 125.710 142.455,125.749 134.400,125.687 134.400 C 125.626 134.400,125.489 134.625,125.383 134.900 M315.379 134.910 C 315.272 135.190,315.233 139.285,315.293 144.010 L 315.402 152.600 315.601 143.500 C 315.796 134.589,315.777 133.872,315.379 134.910 M151.375 138.100 L 150.200 139.400 151.500 138.225 C 152.215 137.579,152.800 136.994,152.800 136.925 C 152.800 136.616,152.470 136.888,151.375 138.100 M96.164 144.200 C 96.163 147.940,96.223 149.524,96.297 147.720 C 96.371 145.915,96.372 142.855,96.298 140.920 C 96.225 138.984,96.164 140.460,96.164 144.200 M184.825 138.851 C 184.777 140.086,185.812 140.440,189.062 140.298 L 192.200 140.161 188.887 140.080 C 185.863 140.007,185.543 139.922,185.212 139.100 C 184.968 138.491,184.843 138.410,184.825 138.851 M214.400 139.524 C 214.400 139.846,212.297 140.014,207.300 140.091 L 200.200 140.200 200.174 143.000 L 200.148 145.800 200.291 143.100 L 200.435 140.400 207.394 140.400 C 213.849 140.400,215.486 140.153,214.640 139.307 C 214.508 139.175,214.400 139.273,214.400 139.524 M68.500 139.891 C 69.325 139.978,70.675 139.978,71.500 139.891 C 72.325 139.805,71.650 139.734,70.000 139.734 C 68.350 139.734,67.675 139.805,68.500 139.891 M162.500 139.891 C 163.325 139.978,164.675 139.978,165.500 139.891 C 166.325 139.805,165.650 139.734,164.000 139.734 C 162.350 139.734,161.675 139.805,162.500 139.891 M104.534 144.800 C 104.534 146.450,104.605 147.125,104.691 146.300 C 104.778 145.475,104.778 144.125,104.691 143.300 C 104.605 142.475,104.534 143.150,104.534 144.800 M324.062 147.334 C 323.203 148.249,323.188 148.459,323.300 157.834 L 323.415 167.400 323.508 157.826 C 323.597 148.611,323.633 148.217,324.470 147.326 C 324.948 146.817,325.249 146.400,325.139 146.400 C 325.029 146.400,324.545 146.820,324.062 147.334 M133.367 157.000 C 133.367 161.180,133.426 162.836,133.498 160.679 C 133.571 158.523,133.570 155.103,133.498 153.079 C 133.425 151.056,133.366 152.820,133.367 157.000 M301.348 154.400 C 301.348 156.710,301.414 157.655,301.495 156.500 C 301.576 155.345,301.576 153.455,301.495 152.300 C 301.414 151.145,301.348 152.090,301.348 154.400 M192.163 157.200 C 192.163 160.830,192.223 162.315,192.298 160.500 C 192.372 158.685,192.372 155.715,192.298 153.900 C 192.223 152.085,192.163 153.570,192.163 157.200 M67.200 152.998 C 67.200 153.267,71.249 155.284,71.429 155.105 C 71.511 155.023,70.593 154.473,69.389 153.882 C 68.185 153.292,67.200 152.894,67.200 152.998 M161.200 152.998 C 161.200 153.265,166.849 156.085,167.027 155.906 C 167.107 155.827,165.828 155.097,164.186 154.284 C 162.544 153.471,161.200 152.893,161.200 152.998 M290.940 157.600 C 290.940 159.470,291.009 160.235,291.093 159.300 C 291.177 158.365,291.177 156.835,291.093 155.900 C 291.009 154.965,290.940 155.730,290.940 157.600 M57.400 156.400 C 58.259 157.280,59.052 158.000,59.162 158.000 C 59.272 158.000,58.659 157.280,57.800 156.400 C 56.941 155.520,56.148 154.800,56.038 154.800 C 55.928 154.800,56.541 155.520,57.400 156.400 M247.100 157.096 C 248.475 157.174,250.725 157.174,252.100 157.096 C 253.475 157.018,252.350 156.954,249.600 156.954 C 246.850 156.954,245.725 157.018,247.100 157.096 M199.734 160.400 C 199.734 162.050,199.805 162.725,199.891 161.900 C 199.978 161.075,199.978 159.725,199.891 158.900 C 199.805 158.075,199.734 158.750,199.734 160.400 M345.763 165.600 C 345.763 169.230,345.823 170.715,345.898 168.900 C 345.972 167.085,345.972 164.115,345.898 162.300 C 345.823 160.485,345.763 161.970,345.763 165.600 M315.724 161.800 C 315.726 163.120,315.801 163.612,315.890 162.893 C 315.979 162.174,315.977 161.094,315.886 160.493 C 315.795 159.892,315.722 160.480,315.724 161.800 M290.909 164.400 C 290.909 165.390,290.987 165.795,291.082 165.300 C 291.178 164.805,291.178 163.995,291.082 163.500 C 290.987 163.005,290.909 163.410,290.909 164.400 M104.134 166.000 C 104.134 167.650,104.205 168.325,104.291 167.500 C 104.378 166.675,104.378 165.325,104.291 164.500 C 104.205 163.675,104.134 164.350,104.134 166.000 M301.324 165.400 C 301.326 166.720,301.401 167.212,301.490 166.493 C 301.579 165.774,301.577 164.694,301.486 164.093 C 301.395 163.492,301.322 164.080,301.324 165.400 M72.600 165.054 C 72.820 165.248,73.629 165.945,74.399 166.603 L 75.797 167.800 74.799 166.663 C 74.249 166.038,73.440 165.341,73.000 165.114 C 72.560 164.888,72.380 164.861,72.600 165.054 M96.131 168.200 C 96.133 169.740,96.205 170.321,96.292 169.491 C 96.379 168.661,96.377 167.401,96.289 166.691 C 96.200 165.981,96.129 166.660,96.131 168.200 M168.445 166.581 C 168.800 167.031,169.290 167.760,169.533 168.200 C 169.777 168.640,169.981 168.778,169.988 168.506 C 169.995 168.235,169.505 167.506,168.900 166.887 C 168.295 166.268,168.090 166.130,168.445 166.581 M246.118 165.898 C 247.833 165.973,250.533 165.972,252.118 165.897 C 253.703 165.821,252.300 165.759,249.000 165.760 C 245.700 165.761,244.403 165.822,246.118 165.898 M84.101 169.000 C 84.105 169.880,84.187 170.193,84.283 169.695 C 84.379 169.198,84.375 168.478,84.275 168.095 C 84.175 167.713,84.096 168.120,84.101 169.000 M191.701 169.800 C 191.705 170.680,191.787 170.993,191.883 170.495 C 191.979 169.998,191.975 169.278,191.875 168.895 C 191.775 168.513,191.696 168.920,191.701 169.800 M315.360 174.200 C 315.361 177.500,315.422 178.797,315.498 177.082 C 315.573 175.367,315.572 172.667,315.497 171.082 C 315.421 169.497,315.359 170.900,315.360 174.200 M76.101 170.600 C 76.105 171.480,76.187 171.793,76.283 171.295 C 76.379 170.798,76.375 170.078,76.275 169.695 C 76.175 169.313,76.096 169.720,76.101 170.600 M290.534 174.400 C 290.534 176.050,290.605 176.725,290.691 175.900 C 290.778 175.075,290.778 173.725,290.691 172.900 C 290.605 172.075,290.534 172.750,290.534 174.400 M354.157 177.200 C 354.157 180.170,354.220 181.385,354.297 179.900 C 354.374 178.415,354.374 175.985,354.297 174.500 C 354.220 173.015,354.157 174.230,354.157 177.200 M73.775 175.300 L 72.600 176.600 73.900 175.425 C 74.615 174.779,75.200 174.194,75.200 174.125 C 75.200 173.816,74.870 174.088,73.775 175.300 M167.775 175.300 L 166.600 176.600 167.900 175.425 C 169.112 174.330,169.384 174.000,169.075 174.000 C 169.006 174.000,168.421 174.585,167.775 175.300 M176.278 175.405 C 175.912 176.172,175.695 176.800,175.796 176.800 C 176.070 176.800,177.284 174.351,177.101 174.168 C 177.014 174.081,176.644 174.638,176.278 175.405 M323.742 179.800 C 323.741 181.780,323.808 182.640,323.892 181.712 C 323.976 180.784,323.977 179.164,323.895 178.112 C 323.812 177.060,323.743 177.820,323.742 179.800 M301.714 181.400 C 301.717 182.500,301.795 182.903,301.887 182.295 C 301.979 181.686,301.977 180.786,301.882 180.295 C 301.787 179.803,301.711 180.300,301.714 181.400 M110.705 183.883 C 111.202 183.979,111.922 183.975,112.305 183.875 C 112.687 183.775,112.280 183.696,111.400 183.701 C 110.520 183.705,110.207 183.787,110.705 183.883 M316.570 212.400 C 316.570 217.130,316.628 219.065,316.698 216.700 C 316.769 214.335,316.769 210.465,316.698 208.100 C 316.628 205.735,316.570 207.670,316.570 212.400 M63.358 215.800 C 63.358 218.880,63.421 220.087,63.497 218.482 C 63.573 216.878,63.573 214.358,63.496 212.882 C 63.419 211.407,63.357 212.720,63.358 215.800 M239.700 222.676 C 240.085 222.776,240.715 222.776,241.100 222.676 C 241.485 222.575,241.170 222.493,240.400 222.493 C 239.630 222.493,239.315 222.575,239.700 222.676 M347.300 222.676 C 347.685 222.776,348.315 222.776,348.700 222.676 C 349.085 222.575,348.770 222.493,348.000 222.493 C 347.230 222.493,346.915 222.575,347.300 222.676 M111.883 223.060 C 112.676 223.232,112.781 223.544,112.913 226.126 L 113.061 229.000 113.030 226.000 C 113.001 223.093,112.969 222.998,112.000 222.934 C 111.152 222.879,111.134 222.898,111.883 223.060 M125.505 223.083 C 126.002 223.179,126.722 223.175,127.105 223.075 C 127.487 222.975,127.080 222.896,126.200 222.901 C 125.320 222.905,125.007 222.987,125.505 223.083 M308.958 228.200 C 308.958 231.280,309.021 232.487,309.097 230.882 C 309.173 229.278,309.173 226.758,309.096 225.282 C 309.019 223.807,308.957 225.120,308.958 228.200 M105.354 228.400 C 105.354 231.150,105.418 232.275,105.496 230.900 C 105.574 229.525,105.574 227.275,105.496 225.900 C 105.418 224.525,105.354 225.650,105.354 228.400 M55.757 232.800 C 55.757 235.770,55.820 236.985,55.897 235.500 C 55.974 234.015,55.974 231.585,55.897 230.100 C 55.820 228.615,55.757 229.830,55.757 232.800 M199.300 228.276 C 199.685 228.376,200.315 228.376,200.700 228.276 C 201.085 228.175,200.770 228.093,200.000 228.093 C 199.230 228.093,198.915 228.175,199.300 228.276 M344.100 228.276 C 344.485 228.376,345.115 228.376,345.500 228.276 C 345.885 228.175,345.570 228.093,344.800 228.093 C 344.030 228.093,343.715 228.175,344.100 228.276 M194.041 230.614 C 193.359 231.392,192.805 232.247,192.812 232.514 C 192.819 232.781,193.023 232.640,193.266 232.200 C 193.508 231.760,194.167 230.905,194.728 230.300 C 195.290 229.695,195.645 229.200,195.516 229.200 C 195.388 229.200,194.724 229.836,194.041 230.614 M242.033 229.351 C 242.442 229.721,245.600 231.195,245.600 231.016 C 245.600 230.789,242.581 229.200,242.149 229.200 C 241.994 229.200,241.942 229.268,242.033 229.351 M247.600 230.506 C 247.600 230.857,247.195 231.222,246.700 231.318 L 245.800 231.491 246.713 231.546 C 247.592 231.598,248.362 230.629,247.849 230.116 C 247.712 229.979,247.600 230.154,247.600 230.506 M352.976 230.978 C 353.837 231.668,355.031 231.797,355.377 231.237 C 355.500 231.038,355.259 230.964,354.841 231.073 C 354.424 231.183,353.658 231.066,353.141 230.814 C 352.245 230.378,352.237 230.386,352.976 230.978 M123.100 231.089 C 123.815 231.178,124.985 231.178,125.700 231.089 C 126.415 231.001,125.830 230.928,124.400 230.928 C 122.970 230.928,122.385 231.001,123.100 231.089 M260.981 233.237 C 260.629 233.918,260.412 234.545,260.499 234.632 C 260.586 234.719,260.956 234.162,261.322 233.395 C 262.144 231.670,261.859 231.538,260.981 233.237 M222.093 234.000 C 222.093 234.770,222.175 235.085,222.276 234.700 C 222.376 234.315,222.376 233.685,222.276 233.300 C 222.175 232.915,222.093 233.230,222.093 234.000 M192.501 234.600 C 192.505 235.480,192.587 235.793,192.683 235.295 C 192.779 234.798,192.775 234.078,192.675 233.695 C 192.575 233.313,192.496 233.720,192.501 234.600 M329.714 235.800 C 329.717 236.900,329.795 237.303,329.887 236.695 C 329.979 236.086,329.977 235.186,329.882 234.695 C 329.787 234.203,329.711 234.700,329.714 235.800 M136.978 246.600 C 136.978 253.420,137.032 256.266,137.099 252.925 C 137.166 249.584,137.166 244.004,137.099 240.525 C 137.033 237.046,136.978 239.780,136.978 246.600 M144.534 237.200 C 144.534 238.850,144.605 239.525,144.691 238.700 C 144.778 237.875,144.778 236.525,144.691 235.700 C 144.605 234.875,144.534 235.550,144.534 237.200 M288.093 236.400 C 288.093 237.170,288.175 237.485,288.276 237.100 C 288.376 236.715,288.376 236.085,288.276 235.700 C 288.175 235.315,288.093 235.630,288.093 236.400 M171.346 241.800 C 171.347 244.000,171.414 244.849,171.495 243.687 C 171.576 242.524,171.576 240.724,171.493 239.687 C 171.411 238.649,171.345 239.600,171.346 241.800 M295.701 239.400 C 295.705 240.280,295.787 240.593,295.883 240.095 C 295.979 239.598,295.975 238.878,295.875 238.495 C 295.775 238.113,295.696 238.520,295.701 239.400 M316.168 245.800 C 316.168 250.200,316.226 252.055,316.298 249.921 C 316.370 247.788,316.370 244.188,316.299 241.921 C 316.227 239.655,316.168 241.400,316.168 245.800 M288.000 238.911 C 288.000 239.393,287.519 239.594,286.100 239.706 L 284.200 239.856 286.113 239.928 C 287.928 239.996,289.013 239.280,288.249 238.516 C 288.112 238.379,288.000 238.557,288.000 238.911 M62.960 245.400 C 62.961 248.700,63.022 249.997,63.098 248.282 C 63.173 246.567,63.172 243.867,63.097 242.282 C 63.021 240.697,62.959 242.100,62.960 245.400 M93.744 244.400 C 93.744 246.490,93.812 247.345,93.894 246.300 C 93.976 245.255,93.976 243.545,93.894 242.500 C 93.812 241.455,93.744 242.310,93.744 244.400 M112.901 242.600 C 112.905 243.480,112.987 243.793,113.083 243.295 C 113.179 242.798,113.175 242.078,113.075 241.695 C 112.975 241.313,112.896 241.720,112.901 242.600 M258.501 243.400 C 258.505 244.280,258.587 244.593,258.683 244.095 C 258.779 243.598,258.775 242.878,258.675 242.495 C 258.575 242.113,258.496 242.520,258.501 243.400 M86.142 245.800 C 86.141 247.780,86.208 248.640,86.292 247.712 C 86.376 246.784,86.377 245.164,86.295 244.112 C 86.212 243.060,86.143 243.820,86.142 245.800 M190.800 245.779 C 190.800 245.889,191.340 246.259,192.000 246.600 C 192.660 246.941,193.200 247.131,193.200 247.021 C 193.200 246.911,192.660 246.541,192.000 246.200 C 191.340 245.859,190.800 245.669,190.800 245.779 M229.200 246.597 C 229.200 246.868,232.449 248.484,232.630 248.303 C 232.714 248.219,231.976 247.759,230.991 247.281 C 230.006 246.802,229.200 246.494,229.200 246.597 M354.400 247.800 C 355.146 248.570,355.847 249.200,355.957 249.200 C 356.067 249.200,355.546 248.570,354.800 247.800 C 354.054 247.030,353.353 246.400,353.243 246.400 C 353.133 246.400,353.654 247.030,354.400 247.800 M105.720 248.800 C 105.720 250.010,105.795 250.505,105.887 249.900 C 105.978 249.295,105.978 248.305,105.887 247.700 C 105.795 247.095,105.720 247.590,105.720 248.800 M258.501 249.000 C 258.505 249.880,258.587 250.193,258.683 249.695 C 258.779 249.198,258.775 248.478,258.675 248.095 C 258.575 247.713,258.496 248.120,258.501 249.000 M112.961 256.800 C 112.961 260.210,113.022 261.605,113.097 259.900 C 113.172 258.195,113.172 255.405,113.097 253.700 C 113.022 251.995,112.961 253.390,112.961 256.800 M55.714 255.000 C 55.717 256.100,55.795 256.503,55.887 255.895 C 55.979 255.286,55.977 254.386,55.882 253.895 C 55.787 253.403,55.711 253.900,55.714 255.000 M212.909 255.600 C 212.909 256.590,212.987 256.995,213.082 256.500 C 213.178 256.005,213.178 255.195,213.082 254.700 C 212.987 254.205,212.909 254.610,212.909 255.600 M357.701 255.400 C 357.705 256.280,357.787 256.593,357.883 256.095 C 357.979 255.598,357.975 254.878,357.875 254.495 C 357.775 254.113,357.696 254.520,357.701 255.400 M308.914 256.200 C 308.917 257.300,308.995 257.703,309.087 257.095 C 309.179 256.486,309.177 255.586,309.082 255.095 C 308.987 254.603,308.911 255.100,308.914 256.200 M35.300 255.076 C 35.685 255.176,36.315 255.176,36.700 255.076 C 37.085 254.975,36.770 254.893,36.000 254.893 C 35.230 254.893,34.915 254.975,35.300 255.076 M81.000 260.278 C 79.900 261.294,79.360 261.932,79.800 261.695 C 80.562 261.286,83.553 258.383,83.178 258.416 C 83.080 258.425,82.100 259.263,81.000 260.278 M105.346 263.000 C 105.347 265.200,105.414 266.049,105.495 264.887 C 105.576 263.724,105.576 261.924,105.493 260.887 C 105.411 259.849,105.345 260.800,105.346 263.000 M63.276 259.966 C 63.368 260.277,63.884 260.806,64.422 261.141 C 65.180 261.614,65.265 261.621,64.800 261.175 C 64.470 260.859,63.954 260.330,63.654 260.000 C 63.215 259.517,63.141 259.510,63.276 259.966 M158.000 260.600 C 157.010 261.130,156.342 261.572,156.516 261.582 C 156.941 261.606,160.000 260.034,160.000 259.792 C 160.000 259.527,160.017 259.520,158.000 260.600 M290.000 260.400 C 289.230 260.822,288.744 261.174,288.920 261.183 C 289.344 261.205,291.600 260.032,291.600 259.790 C 291.600 259.528,291.577 259.537,290.000 260.400 M271.821 260.434 C 272.095 260.877,274.416 262.118,274.609 261.924 C 274.684 261.850,274.035 261.400,273.168 260.925 C 272.300 260.450,271.694 260.229,271.821 260.434 M240.000 261.660 C 239.230 262.335,238.962 262.705,239.404 262.481 C 240.135 262.111,241.947 260.378,241.562 260.416 C 241.473 260.425,240.770 260.985,240.000 261.660 M150.291 262.289 C 151.001 262.377,152.261 262.379,153.091 262.292 C 153.921 262.205,153.340 262.133,151.800 262.131 C 150.260 262.129,149.581 262.200,150.291 262.289 M316.479 265.100 L 316.400 268.400 312.633 268.400 C 310.460 268.400,308.781 268.227,308.663 267.990 C 308.552 267.764,308.506 267.810,308.562 268.090 C 308.717 268.857,316.335 269.034,316.626 268.277 C 316.742 267.974,316.775 266.392,316.698 264.763 L 316.559 261.800 316.479 265.100 M208.981 264.900 L 207.400 266.600 209.100 265.019 C 210.681 263.548,210.984 263.200,210.681 263.200 C 210.616 263.200,209.851 263.965,208.981 264.900 M353.775 264.900 L 352.600 266.200 353.900 265.025 C 354.615 264.379,355.200 263.794,355.200 263.725 C 355.200 263.416,354.870 263.688,353.775 264.900 M55.260 267.451 C 55.223 268.223,55.468 268.912,55.900 269.251 C 56.509 269.729,56.540 269.722,56.135 269.200 C 55.880 268.870,55.592 268.060,55.495 267.400 L 55.320 266.200 55.260 267.451 M113.200 267.719 C 113.200 268.272,112.572 268.392,109.100 268.502 L 105.000 268.631 109.113 268.716 C 113.097 268.797,114.483 268.350,113.449 267.316 C 113.312 267.179,113.200 267.360,113.200 267.719 M35.105 269.483 C 35.602 269.579,36.322 269.575,36.705 269.475 C 37.087 269.375,36.680 269.296,35.800 269.301 C 34.920 269.305,34.607 269.387,35.105 269.483 M71.100 269.489 C 71.815 269.578,72.985 269.578,73.700 269.489 C 74.415 269.401,73.830 269.328,72.400 269.328 C 70.970 269.328,70.385 269.401,71.100 269.489 M195.500 269.489 C 196.215 269.578,197.385 269.578,198.100 269.489 C 198.815 269.401,198.230 269.328,196.800 269.328 C 195.370 269.328,194.785 269.401,195.500 269.489 M232.300 269.489 C 233.015 269.578,234.185 269.578,234.900 269.489 C 235.615 269.401,235.030 269.328,233.600 269.328 C 232.170 269.328,231.585 269.401,232.300 269.489 M277.891 269.489 C 278.601 269.577,279.861 269.579,280.691 269.492 C 281.521 269.405,280.940 269.333,279.400 269.331 C 277.860 269.329,277.181 269.400,277.891 269.489 M340.300 269.489 C 341.015 269.578,342.185 269.578,342.900 269.489 C 343.615 269.401,343.030 269.328,341.600 269.328 C 340.170 269.328,339.585 269.401,340.300 269.489 " stroke="none" fill="#756db0" fill-rule="evenodd"></path></g></svg>