<?xml version="1.0" encoding="UTF-8" standalone="no"?>
<!-- Created with Inkscape (http://www.inkscape.org/) -->

<svg
   version="1.1"
   id="svg2"
   xml:space="preserve"
   width="170.28"
   height="51.306667"
   viewBox="0 0 170.28 51.306667"
   sodipodi:docname="logo3lp.eps"
   xmlns:inkscape="http://www.inkscape.org/namespaces/inkscape"
   xmlns:sodipodi="http://sodipodi.sourceforge.net/DTD/sodipodi-0.dtd"
   xmlns="http://www.w3.org/2000/svg"
   xmlns:svg="http://www.w3.org/2000/svg"><defs
     id="defs6"><clipPath
       clipPathUnits="userSpaceOnUse"
       id="clipPath20"><path
         d="M 0,0 H 363.438 V 363.43 H 0 Z"
         id="path18" /></clipPath></defs><sodipodi:namedview
     id="namedview4"
     pagecolor="#nonef"
     bordercolor="#666666"
     borderopacity="1.0"
     inkscape:pageshadow="2"
     inkscape:pageopacity="0.0"
     inkscape:pagecheckerboard="0" /><g
     id="g8"
     inkscape:groupmode="layer"
     inkscape:label="ink_ext_XXXXXX"
     transform="matrix(1.3333333,0,0,-1.3333333,0,51.306667)"><g
       id="g10"
       transform="scale(0.1)"><path
         d="M 0,363.43 H 363.438 V 0 H 0 v 363.43"
         style="fill:#fff;fill-opacity:1;fill-rule:nonzero;stroke:none"
         id="path12" /><g
         id="g14"><g
           id="g16"
           clip-path="url(#clipPath20)"><path
             d="M 0,363.43 H 363.438 V 0 H 0 v 363.43"
             style="fill:#fff;fill-opacity:1;fill-rule:nonzero;stroke:none"
             id="path22" /></g></g><path
         d="m 198.992,143.586 h 26.906 V 170.5 l -26.906,-26.914"
         style="fill:#a6b8e4;fill-opacity:1;fill-rule:nonzero;stroke:none"
         id="path24" /><path
         d="m 149.219,232.98 v -15.89 h 12.715 v -74.102 h -12.715 v -15.886 h 76.679 v 16.484 h -38.742 v 73.504 h 14.106 v 15.89 h -52.043"
         style="fill:#nonef;fill-opacity:1;fill-rule:nonzero;stroke:none"
         id="path26" /><path
         d="m 114.836,131.16 c 9.473,7.649 11.523,16.106 11.523,28.899 l -0.019,56.718 13.316,0.02 v 15.891 l -39.136,-0.02 v -15.891 l 8.359,0.02 v -59.414 c 0,-8.34 -6.801,-15.078 -15.129,-15.086 -10.8906,-0.012 -15.0898,6.766 -15.0898,15.098 v 59.414 l 8.75,-0.012 0.7265,15.891 H 41.6523 l -0.7148,-15.891 h 12.4531 l 0.0547,-55.43 c 0,-11.465 0.207,-18.074 6.2891,-26.484 5.4531,-7.559 14.9453,-11.231 30.1094,-11.199 10.6762,0.027 18.9962,2.636 24.9922,7.476"
         style="fill:#nonef;fill-opacity:1;fill-rule:nonzero;stroke:none"
         id="path28" /><path
         d="m 283.938,143.574 c 10.789,0.059 15.683,5.383 15.71,14.805 0.032,9.707 -6.503,16.387 -15.75,16.406 l -10.082,-0.008 0.024,-31.203 h 10.098 m -1.321,46.516 c 8.613,-0.031 13.438,5.086 13.457,13.277 0.031,8.442 -5.437,13.715 -13.484,13.735 l -8.75,-0.012 v -27.02 z m 31.492,-9.797 c 7.387,-5.137 12.231,-13.543 12.278,-23.691 0.078,-15.899 -15.985,-29.512 -30.801,-29.493 l -59.68,-0.007 -0.015,16.484 h 12.129 v 73.504 h -12.715 v 15.89 h 60.386 c 14.836,0 26.86,-11.574 26.86,-26.027 0,-6.562 -3.262,-14.297 -8.481,-19.07 l -7.129,-4.453 7.168,-3.137"
         style="fill:#nonef;fill-opacity:1;fill-rule:nonzero;stroke:none"
         id="path30" /><path
         d="m 469.309,293 c -3.829,-4.707 -10.059,-8.859 -21.653,-8.859 -11.367,0 -18.918,3.601 -22.742,10.5 -1.965,3.496 -2.402,5.574 -2.402,13.445 v 52.59 h 10.601 v -48.653 c 0,-5.468 0.551,-12.14 2.739,-14.66 2.078,-2.402 5.898,-4.258 11.914,-4.258 5.691,0 9.843,1.75 12.246,4.922 1.863,2.403 2.734,6.446 2.734,12.461 v 50.188 h 10.496 v -51.719 c 0,-9.512 -0.547,-11.809 -3.933,-15.957"
         style="fill:#fff;fill-opacity:1;fill-rule:nonzero;stroke:none"
         id="path32" /><path
         d="m 550.742,285.344 -19.797,40.008 c -3.824,7.761 -7.761,16.3 -9.175,20.664 l -0.665,-0.11 c 0.547,-6.441 0.77,-13.992 0.879,-20.984 l 0.438,-39.578 h -10.606 v 75.332 h 12.247 l 20.988,-41.555 c 3.172,-6.23 6.89,-15.957 7.437,-18.035 l 0.657,0.223 c -0.215,2.179 -1.094,14.101 -1.094,22.414 l -0.215,36.953 h 10.168 v -75.332 h -11.262"
         style="fill:#fff;fill-opacity:1;fill-rule:nonzero;stroke:none"
         id="path34" /><path
         d="m 600.168,285.344 v 75.332 h 10.711 v -75.332 h -10.711"
         style="fill:#fff;fill-opacity:1;fill-rule:nonzero;stroke:none"
         id="path36" /><path
         d="m 672.988,285.129 h -10.281 l -25.148,75.547 h 11.593 l 14.434,-45.051 c 0.867,-2.625 2.066,-6.668 2.84,-9.949 0.547,-2.403 0.988,-4.153 1.203,-5.688 h 0.652 c 0.332,1.535 0.774,2.953 1.535,5.688 0.875,3.062 1.747,5.906 3.055,10.058 l 14.766,44.942 h 10.937 l -25.586,-75.547"
         style="fill:#fff;fill-opacity:1;fill-rule:nonzero;stroke:none"
         id="path38" /><path
         d="m 726.016,285.344 v 75.332 h 40.996 l -1.414,-8.645 h -28.977 v -22.957 h 24.27 v -8.859 H 736.73 v -25.801 h 31.493 v -9.07 h -42.207"
         style="fill:#fff;fill-opacity:1;fill-rule:nonzero;stroke:none"
         id="path40" /><path
         d="m 838.066,285.344 c -2.187,4.265 -3.164,6.015 -6.23,11.148 -5.789,9.621 -7.656,12.797 -13.008,18.813 -1.973,2.175 -3.613,3.269 -6.777,3.386 v -33.347 h -10.496 v 75.332 h 21.101 c 8.965,0 14.207,-2.082 17.824,-5.469 3.387,-3.176 6.668,-8.203 6.668,-15.527 0,-11.7 -7.546,-21.106 -20.125,-20.664 3.504,-2.844 5.254,-5.246 6.563,-6.993 1.531,-2.082 3.828,-5.363 6.348,-9.296 3.281,-5.137 9.402,-14.985 10.925,-17.383 z m -8.964,65.269 c -2.188,0.871 -5.243,1.418 -9.18,1.418 h -7.871 v -26.238 h 7.324 c 6.672,0 10.383,1.094 13.008,3.613 2.297,2.188 3.722,5.789 3.722,10.164 0,5.246 -2.843,9.407 -7.003,11.043"
         style="fill:#fff;fill-opacity:1;fill-rule:nonzero;stroke:none"
         id="path42" /><path
         d="m 899.621,283.918 c -8.644,0 -16.953,2.187 -24.277,6.668 l 4.148,8.098 c 6.563,-4.043 12.793,-6.235 20.344,-6.235 9.844,0 16.289,5.031 16.289,13.117 0,6.125 -4.043,10.391 -12.461,12.793 l -7.871,2.297 c -11.379,3.282 -17.824,8.75 -17.824,19.461 0,13.008 10.058,21.867 24.922,21.867 8.312,0 16.406,-2.402 23.078,-7.109 l -4.707,-7.434 c -6.992,4.27 -11.699,5.899 -17.93,5.899 -8.418,0 -13.664,-4.363 -13.664,-11.367 0,-5.352 3.059,-8.418 11.152,-10.821 l 8.86,-2.625 c 10.054,-2.953 18.367,-9.511 18.367,-21.211 0,-10.492 -8.645,-23.398 -28.426,-23.398"
         style="fill:#fff;fill-opacity:1;fill-rule:nonzero;stroke:none"
         id="path44" /><path
         d="m 961.164,285.344 v 75.332 h 10.711 v -75.332 h -10.711"
         style="fill:#fff;fill-opacity:1;fill-rule:nonzero;stroke:none"
         id="path46" /><path
         d="m 1049.84,351.926 h -19.57 v -66.582 h -10.39 v 66.582 h -19.58 v 8.75 h 50.63 l -1.09,-8.75"
         style="fill:#fff;fill-opacity:1;fill-rule:nonzero;stroke:none"
         id="path48" /><path
         d="m 1078.93,285.344 v 75.332 h 40.99 l -1.41,-8.645 h -28.98 v -22.957 h 24.27 v -8.859 h -24.16 v -25.801 h 31.49 v -9.07 z m 12.24,79.043 -3.17,5.906 21.97,14.543 4.92,-9.297 -23.72,-11.152"
         style="fill:#fff;fill-opacity:1;fill-rule:nonzero;stroke:none"
         id="path50" /><path
         d="m 460.559,144.777 h -37.61 v 75.332 h 10.715 v -66.582 h 28.641 l -1.746,-8.75"
         style="fill:#fff;fill-opacity:1;fill-rule:nonzero;stroke:none"
         id="path52" /><path
         d="m 489.973,144.777 v 75.332 h 10.711 v -75.332 h -10.711"
         style="fill:#fff;fill-opacity:1;fill-rule:nonzero;stroke:none"
         id="path54" /><path
         d="m 573.613,145.977 c -3.386,-0.868 -7.976,-1.2 -11.914,-1.2 h -22.961 v 75.332 h 15.957 c 12.688,0 16.078,-0.332 20.785,-2.843 6.668,-3.504 10.165,-8.86 10.165,-15.75 0,-7.871 -4.481,-13.879 -13.672,-16.614 11.379,-2.519 16.843,-9.629 16.843,-19.461 0,-10.5 -6.453,-17.168 -15.203,-19.464 z m -6.672,64.503 c -1.746,0.547 -3.828,0.77 -7.644,0.77 h -10.281 v -22.957 h 11.922 c 6.671,0 8.964,1.199 11.152,4.148 1.418,1.973 2.187,4.817 2.187,7.325 0,5.254 -2.961,9.406 -7.336,10.714 z m 2.192,-31.593 c -1.965,0.437 -4.153,0.656 -7.871,0.656 h -12.141 v -26.242 h 14.875 c 6.231,0 13.231,3.722 13.231,13.34 0,6.125 -3.387,11.152 -8.094,12.246"
         style="fill:#fff;fill-opacity:1;fill-rule:nonzero;stroke:none"
         id="path56" /><path
         d="m 658.574,144.777 c -2.187,4.266 -3.164,6.016 -6.23,11.153 -5.789,9.617 -7.656,12.793 -13.008,18.808 -1.973,2.176 -3.613,3.27 -6.777,3.387 v -33.348 h -10.496 v 75.332 h 21.101 c 8.965,0 14.211,-2.082 17.82,-5.468 3.391,-3.176 6.672,-8.203 6.672,-15.528 0,-11.703 -7.547,-21.105 -20.129,-20.664 3.508,-2.844 5.254,-5.246 6.567,-6.992 1.531,-2.082 3.828,-5.363 6.347,-9.301 3.282,-5.133 9.403,-14.976 10.926,-17.379 z m -8.965,65.274 c -2.187,0.867 -5.246,1.414 -9.179,1.414 h -7.871 v -26.238 h 7.324 c 6.672,0 10.383,1.093 13.008,3.613 2.297,2.187 3.718,5.789 3.718,10.164 0,5.246 -2.839,9.402 -7,11.047"
         style="fill:#fff;fill-opacity:1;fill-rule:nonzero;stroke:none"
         id="path58" /><path
         d="m 703.625,144.777 v 75.332 h 40.996 l -1.418,-8.644 H 714.23 v -22.957 h 24.266 v -8.86 h -24.16 v -25.8 h 31.496 v -9.071 h -42.207"
         style="fill:#fff;fill-opacity:1;fill-rule:nonzero;stroke:none"
         id="path60" /><path
         d="M 467.121,14.375 C 461.875,7.8125 454.875,4.21094 441.75,4.21094 H 422.949 V 79.543 h 17.492 c 13.016,0 21.317,-2.961 28.211,-12.4727 4.485,-6.2305 6.668,-14.8633 6.668,-25.2539 0,-12.2461 -3.172,-21.2109 -8.199,-27.4414 z m -9.074,50.0781 c -4.16,5.2461 -8.535,6.6719 -15.859,6.6719 h -8.524 V 12.8438 h 8.309 c 8.632,0 14.211,2.3046 17.609,8.4179 2.723,5.0274 4.043,11.8125 4.043,19.2461 0,10.5 -1.098,18.2539 -5.578,23.9453"
         style="fill:#fff;fill-opacity:1;fill-rule:nonzero;stroke:none"
         id="path62" /><path
         d="M 508.484,4.21094 V 79.543 h 41 l -1.418,-8.6446 h -28.972 v -22.957 h 24.265 V 39.082 h -24.16 V 13.2813 h 31.492 V 4.21094 h -42.207"
         style="fill:#fff;fill-opacity:1;fill-rule:nonzero;stroke:none"
         id="path64" /><path
         d="M 657.219,5.41016 C 653.828,4.54297 649.238,4.21094 645.305,4.21094 H 622.344 V 79.543 h 15.957 c 12.683,0 16.074,-0.3321 20.781,-2.8438 6.672,-3.5039 10.168,-8.8554 10.168,-15.75 0,-7.875 -4.484,-13.8789 -13.672,-16.6133 11.375,-2.5195 16.844,-9.6289 16.844,-19.4609 0,-10.5 -6.453,-17.17187 -15.203,-19.46484 z m -6.672,64.50004 c -1.746,0.5507 -3.817,0.7734 -7.645,0.7734 h -10.285 v -22.957 h 11.926 c 6.668,0 8.965,1.1992 11.148,4.1484 1.418,1.9727 2.192,4.8164 2.192,7.3242 0,5.2539 -2.961,9.4063 -7.336,10.711 z m 2.187,-31.5899 c -1.961,0.4414 -4.148,0.6563 -7.871,0.6563 H 632.727 V 12.7344 h 14.871 c 6.23,0 13.234,3.7187 13.234,13.3398 0,6.125 -3.391,11.1524 -8.098,12.2461"
         style="fill:#fff;fill-opacity:1;fill-rule:nonzero;stroke:none"
         id="path66" /><path
         d="m 742.18,4.21094 c -2.192,4.26562 -3.164,6.01566 -6.235,11.15236 -5.789,9.6172 -7.652,12.793 -13.004,18.8086 -1.972,2.1758 -3.613,3.2695 -6.777,3.3867 V 4.21094 h -10.5 V 79.543 h 21.106 c 8.964,0 14.207,-2.0821 17.82,-5.4688 3.39,-3.1758 6.672,-8.207 6.672,-15.5273 0,-11.6992 -7.551,-21.1055 -20.129,-20.6641 3.508,-2.8437 5.254,-5.2461 6.562,-6.9922 1.535,-2.082 3.828,-5.3633 6.348,-9.2968 3.281,-5.1407 9.402,-14.98052 10.93,-17.38286 z m -8.965,65.27346 c -2.188,0.8672 -5.246,1.414 -9.184,1.414 h -7.867 V 44.6563 h 7.32 c 6.672,0 10.383,1.0976 13.012,3.6171 2.293,2.1875 3.719,5.7891 3.719,10.1641 0,5.2461 -2.84,9.4063 -7,11.0469"
         style="fill:#fff;fill-opacity:1;fill-rule:nonzero;stroke:none"
         id="path68" /><path
         d="m 831.191,11.8633 c -3.828,-4.70705 -10.058,-8.85549 -21.648,-8.85549 -11.367,0 -18.918,3.60547 -22.746,10.49999 -1.961,3.4961 -2.402,5.5742 -2.402,13.4453 V 79.543 H 795 V 30.8906 c 0,-5.4687 0.547,-12.1406 2.734,-14.6601 2.082,-2.4024 5.899,-4.2578 11.914,-4.2578 5.696,0 9.844,1.75 12.247,4.9218 1.867,2.4024 2.734,6.4453 2.734,12.461 V 79.543 h 10.5 V 27.8242 c 0,-9.5117 -0.547,-11.8086 -3.938,-15.9609"
         style="fill:#fff;fill-opacity:1;fill-rule:nonzero;stroke:none"
         id="path70" /><path
         d="M 907.656,4.21094 890.703,36.5742 874.414,4.21094 H 861.621 L 884.363,44.7656 864.25,79.543 h 12.781 l 13.567,-25.586 12.898,25.586 h 12.578 L 897.043,45.4297 920.449,4.21094 h -12.793"
         style="fill:#fff;fill-opacity:1;fill-rule:nonzero;stroke:none"
         id="path72" /><path
         d="M 948.762,4.21094 V 79.543 h 40.996 l -1.418,-8.6446 h -28.977 v -22.957 h 24.27 V 39.082 h -24.16 V 13.2813 h 31.496 V 4.21094 h -42.207"
         style="fill:#fff;fill-opacity:1;fill-rule:nonzero;stroke:none"
         id="path74" /><path
         d="m 1061.26,4.21094 h -37.61 V 79.543 h 10.71 V 12.9609 h 28.65 l -1.75,-8.74996"
         style="fill:#fff;fill-opacity:1;fill-rule:nonzero;stroke:none"
         id="path76" /><path
         d="m 1127.86,4.21094 h -37.61 V 79.543 h 10.72 V 12.9609 h 28.64 l -1.75,-8.74996"
         style="fill:#fff;fill-opacity:1;fill-rule:nonzero;stroke:none"
         id="path78" /><path
         d="M 1155.52,4.21094 V 79.543 h 41 l -1.42,-8.6446 h -28.97 v -22.957 h 24.26 V 39.082 h -24.16 V 13.2813 h 31.5 V 4.21094 h -42.21"
         style="fill:#fff;fill-opacity:1;fill-rule:nonzero;stroke:none"
         id="path80" /><path
         d="m 1248.66,2.78125 c -8.63,0 -16.94,2.19141 -24.27,6.67188 l 4.16,8.09767 c 6.56,-4.043 12.79,-6.2305 20.34,-6.2305 9.84,0 16.29,5.0274 16.29,13.1133 0,6.125 -4.05,10.3906 -12.47,12.793 l -7.87,2.2968 c -11.37,3.2813 -17.82,8.75 -17.82,19.461 0,13.0078 10.06,21.8672 24.92,21.8672 8.31,0 16.41,-2.4024 23.08,-7.1133 l -4.71,-7.4297 c -6.99,4.2656 -11.7,5.8984 -17.93,5.8984 -8.42,0 -13.66,-4.3632 -13.66,-11.3672 0,-5.3515 3.06,-8.4179 11.16,-10.8203 l 8.85,-2.625 c 10.06,-2.9492 18.37,-9.5117 18.37,-21.2109 0,-10.4883 -8.64,-23.40235 -28.44,-23.40235"
         style="fill:#fff;fill-opacity:1;fill-rule:nonzero;stroke:none"
         id="path82" /></g></g></svg>
